/* XPM */
static char *c3f445e90d9b41bfbc4056fd7e4a450avYWesBVtK8gQbhG2[] = {
/* columns rows colors chars-per-pixel */
"128 128 16 1 ",
"  c #440204",
". c #9C0204",
"X c #740204",
"o c #BC0204",
"O c #5C0204",
"+ c #B40204",
"@ c #8C0204",
"# c #CC0204",
"$ c #4C0204",
"% c #A40204",
"& c #7C0204",
"* c #640204",
"= c #D40204",
"- c black",
"; c black",
": c black",
/* pixels */
"*X*O*O*X**OX*XX*O*X*O$O*X$ O$$O $OO&+&XXX*X$ O$$OXXX*X**XOO**O$O$O$$$ $O $O $O $XX*$  $   $OOOXX&XXX*OO&@X&@@&X*O*X&@@..&XX&X**X",
"OOO*X*OXO**@XX&XXOX**O$$$$$O$$ $$$XX*O$OOOO$ *OO*O*X&&OOOO$OOOO $  O$O   $$$  $*&@    $ $$ OOOO&X&OOO*OX&@..&X*O*XXX@@X&@XO**X*O",
"$O*X**O**XXXX*X&XO$$OOO$O$ $$ O$O**OO O $$**OXX&$*X&&@X*OO$$*O  O$$OO $ $ OO$$O**O$   $O*  $OO$*** OOX*&&&@X*XXX*X*&&*XX&&@&*XX$",
"XO*****X&X&&O*OXX$$$$  OOO$O *&&.OO**O*OOO&XX*XOOX*XXX&XXX*O$$ $*$$$ $$O$$$X&OOXO$$$  *OOO$$**$OXO$OOOO&@XX&@&&&*X&&&&&X&&X&X*OO",
"*O*XXOX&XO*O*X@*XXO$O$$*O***XX&XX&X&**OO*XX*X****X**&&X&..X*OO$$OO*$O $O O&X& O*O   $OO$$*@$ $O&O$XO**OO*O*X&XX@X&&@&@XX*X*XX*OO",
"OO$OOXX*XX*X&&*O$&X*OO**X*X**XOXOOOO O$X*&&X*OX*OO*OX*X..&@X$OO$  $$$O *X*@&*$X*O   OO$XOOX*O$$XO$*&**X*O*O*XO*@&&XXX**XX*X*X*O*",
"O$O O****OOXX*O$O@&@&@%&@X$OO$ OXOXOOO&*X@&&X@&XO$OOO*&&X@&X**$O$$OO  $OX&X*OOX*$$  O$*X**XO*O$X**XX&@XXO**OO$$OX&XXX&&*@*X&*$OO",
" XXO**X*$$O$OOOX&@.&@@&&X**O*X*O**X**OXXXOX&X...&XOO*X@&X&&@@OO$ OXXOO$$*X$$O*X* O$$$OXOOXXXX*O$$*X*&&XX*X*O$OO$*X&*X&@XXXXX**$O",
"O*XO*X*XOOOOOO**X*&@&*XX*O&&XX***$X*OX&&X@@.&&.%@....&&@&@&XXOO$O$*XX*OOX$OXOX&  $*X*X$OOX&X*XO*XOXX**XX*X*OO*X$O@&X@..&**X&O$ *",
"OOO*XXX@X O$$&@XO*&&&X**X*X@**X*OX**X&X&XX@&@*X&.@...&@X&@XX&XO**OXX&X&@@&O *&X  $*X**OOO***X*OOX@@X*@XX**X**XOOOX**O*@.&XO*O  O",
"O*X*X&X*X**X&****X$.@XO**X&XX**X*OX&X@X&@X&@&@&&@&@@&@@&&&X&&XO*X**X@&*&@&&OX&*XO*O**OO*OO**&O$OO@X**&**XX&&&*OO$OO$O*X.&XX*O$O$",
"O*X*X*&&X@.@@X$$**O***XXO*@X***@X**...&..@%&&@.@@@%@@.%.@@&XXOO**O$*@@XXXX&X*XOO**OOO$$  $OX*$OO*X&&X*****XXO$$$O$OO$X*X&&XX*XOO",
"X*OO*X@@&@.%X$$OO*OX$**X*XX**X&X*XO.%%@@&&@&X@@%@&...@.@@@&@@XX*XOOO**X*O**X**OO***$ OO$ OO*OOOO$OOOO*X*OOO*OOO*OO$O*&&&X&X&*O*O",
"XXX*X@..**X**$O*XX***XXX*X*X*&.*$X*X@@&OOO*X$X@@&@@@...X&&&&&&XX&@OO**O*$X*XXX*O@X$  **XO$$O$$*O$O***$O$OO***OX*$O$OOO@XXX*X*OOO",
"&@...&@@X*$OOO*X*@@XO*&XX*XX@.@O*XOOOXX*$$OO$X*X*XX.@@&**XXXXXXX*$$$O@*O*****XXXO   $O $$ $XOOOOO$X&OO$$X*@X*$*X $O* ***XXX*X*O*",
".@&XX***&X  O$O&&XX*O&&&X&X&.&**@X*O$O*XO$$O$$*OO$OX@&&X*XX*&X**O   $*XOXO*OO*&*$ $$ $*$OO$**$OO$O&&XO $OOO$$X*O$$$$ $XOO&&OO&&X",
"**$*O*XOO* $O$O*@XX*OXX*X@@@@XXOOX*O$$XO$O*OO$$$$$O$*@*O*$O$OO$   $$$$***OO**XO*O$ OO*XXOOO*O**OOX&*O $O$$ $O$$*X*O   *$XX*X&@&O",
"O**X*XOOO$OO*O$$OXXXO**OXX&@X*O*****X*XXOOO$O*OOOXOO*O $$$$OOO$OOO$$$ O@*OOX**X$$ $O**OO**OOO**O*X*O$$O$$  O$ O&@XX*$O@&@XXX*X*$",
"$$***OOO$$**X*O$$*X*X&XO*X***$$*@*@*$X&***O$O$O$OO$OO$ O$O$     OX$O$  *****&OX* $$O*O$$OOX$O*X&X*X*O $ $O   O**X*&XX&@.X*X*$*$O",
"$OO$O$*OO$XOO**OOO***X*X**OXOOOX&*OOOXXXXO$OO$$$OO$O O$O$$O$$ OOX O$$$ $XXX*X*&$    O*X*XXX@&&&X*OX*O*OO$O $$*XO****&@@&.X**XO$O",
"OO$O*OO$*O*O*OO$$OO*OO*&X@*$*&..XO*$*&@X*$OO$OO$$*O $OOO $$O$OOOO$$    OO&&*XXX$$$O$$**X@.&&X&@*O$**OX$O***X*O$$OOOX&@XX&* $OO$$",
"OO*OO*OO$O O*OOO$XOOOOO*&*O*&..&&O*O*&&XOO*OOO$O$$O O$$$$O OO$$$$$O    $$O&@@*XX *O$$$ $OOX*X**$  $O$ $*O*XX*$O**XO**O$$OO O$$O$",
"**OX**XO$$$*XO**O$*$O*$ OO*X@@&XXXOO$X@***OOOO$$$O$$*O$OO$$*$  O$ $     O O*XX*X*OO $O O$  OO     OXX$OO$$X&**XO$  OO$$OO$OOO$*X",
"XXXXOO*X$OO**O**O$OXO$$*O*X&@&&OO**XX**XXOOOOO$O$$ $$OOO* OO$$ O$ $$ $    O$X.@XX    $$O $$O$ O$$$$OO$$$$OX@X*O $OXX&OO**XOOO OX",
"*O*O$O$**$O*OOOO**OO*XXX*OOOOOOO&@*&O&X&*O  OO$$$   O$OOO$O$ O$  $$$  O  OO *@X**OOO $O$ *O$O$OX$OO $O$$OO*&X*OO$$X*XXXO*&*X$$$$",
"O$$OOO $O*OO$O$O*X$$XXX***O*OO***@X*X&&X*OO$$$O O O$O$O*OO$O$   $$O$   $   $OX&XO*OO$$O$ O*OX*$  O$OX*$$O$*X*XO$$O$O*&&*OOOO$O$$",
"$$O$OO$$OOOO**O*O*O*XO$O*OOO*$OXOOX**XX$OO$OO$O$ $OOO $O$$ $O$$OO$$   $$$ O $*****$O*$OO$  $OO$ $X*O*$OX@$O*O$$OOX**X*O*X*OOO*O$",
"$ $$OOO$$O$OX$*XOOO**$O$OOOOO**O*$$&XOX**OO$*O$$O$$OO**$$$OOO$OOO$$O    O $OO$O  O O*OX*$  $$ OO$*XXO*O&&$OX*XXO O*XX*O@OOOOO$O$",
"$*O$$$ O $*$*OO*OOOOX*OOX*OO*X*O$O X.&X*OOO$OO$$O$ $*O$O $$$O$OO$*$$$OOO$ $O$  $    $XXXO$$O$OXO$*&XXO**OOOXO$$O*O$**XOXOOOX$$X$",
"$OOOOO$$$OX*OOOOO*OOO*O**O**OOO*OO$OX@&*OOO*O*O$O$$OO$OO$$OO$O$O**O$OO$O$$ X$$$O$  O $$ O$$O*OO*OOX*O$OO$***OO X**X*$ O$O***OOO*",
"O$OOOO O$$**OO$*****O*O$XX*OOO***OX**&@&*OO**X*OOOOO*OO$$OO***OOO$OOO$OO$O**O*O     $  $OO$**$$OO*OOO**@XX*XO*@*O*OO$O*$O$*O$O$O",
"OOOO$$OO*OOO$OO*XX***O*XX*****OXXX&X**&@XOOOO*O*O*OOOO$$O$O$O**OO*OOOOOO$O**OOO     O $O  OX*OO$X**O*XX@X**&XX&*OXO$ OX$$$$O$OX$",
"$**OO*OOOO*XOOOOO**XO*X&*OX*XOOX*XX*X@@.X*X**O*OO$OO$O $  $$OOOO*XO*OOOOOOXXO*O$$ $$$$   $$$O*OOO**O*O&XXX*@X$$OOO*$O*XO*O$$ $O ",
"OO**O$O$$O*O*OO$***O$*XO**XXOX**X**&&*&.@**X*X*O$O$$ $O$  $O**$$OXO*O**OO*&OO$$OO$$O $O$O$*X*$**O*OO*O*XXX&@XX&&*OOOO*X*O$OO$$ *",
"$$OO$O$OOOX*O$O*X**XXX&X@@@@&&X**X*X*O***XX**&&XO$$O$$$$$O$**OOXOOOO*OOO$X@OOOO$$O *$ $   OXOOX**XX*X**&***X&X*XXO**XXXO*$*O$O O",
"O$OO$O$XOOOXXX*XX*X&&X@&&&..&XXX****O$OOO**XXXX$$**O$OO$OO**OOO*******O*O*XOO**O$$$  $$$O$O*OO**OOO *&X**XXX*XOOOX*OOOOO*XX*O$O$",
" O*OX**OO$$*OO***O*@&*XX.&.&*X*X*XXO  $O*OX*XXO*OO**OO*XO**OO*O****X*OO*OX&O$O*OO$ O$*O$$$XO*OO$O$$OOO**X*O*O$OO*X*O**O**O*OO**O",
"$OX&$ O$ $$OO$OO$X**&.@&&*X*OX**O&&*O $O*XXXO*O**OOOO**OOOO$X*OO*X*$**X**@&* OXO O$$$$$  $$$$$$O**O$O$O*O*O*O$$O&XOO*OOOOOOO$XXO",
"XOO*$O $$   $$   OO$X&@X*O*X*O*OX.*OO $OOO O*&*OX**O$OOOXO*OOO*OXXOOXO**O&@&@**OX $ $$O $O OO$*O$OO$OO$O*OO&XO$OXOOXXO$***OOO**$",
"$O$OO $$$O$ O$$$ $*OO*X*X*X*O$O*&X*O*OO&@$ $*@&&&&X*OOOOO$O**O*X*OO*X**X*@@@@&XOX*O$O $ $OO$$O**OO OO$O*X**@@X**$OOX&O*XX&***   ",
"XX$ $$ O   $  $O$OO*OO*&&O&X*XX@X*O*O$O*&*$$OOX&.&&XXX**O**@X**@**OX@X*O*&@*O*&X*$OO$  $$ OO*$OO$*OOO*OXOO*X@&X***X*****&X*@X*@X",
".X  $$     $ $O  *X&&O&@X&@@&@@X$OO*O$O*X*$ $ O*@XX&X**X*XXXXXXX*XX*X*XO*X*OOO**$O* $*$O$$$O$O$ $*@X*OO*$ @XXXXX&@*$X&X*X&X*&@.X",
"O$$ O X$  $$$$$ O &@&***X&oo+..XO*OOOO$O@X$$OO$$O*X&XX**O$XXX&X**XX**O$O**O**$O*OX*OX@*$$$O*O$  XXX@XX&XXXX&X*X&*OOOX*O OXO***OO",
"   $$ O*$$ $O   $ *&&XOX&@@@@...&*X*OO$OXXXX$$O$ *OO**$OO**O*@@&@@X*O**&@*O$O$OO&&&@@&XX*X&&XOO&X&@.@.@@@&***XO*OOXXOO$$$  O$O$$",
"   O$$*O $$$ $ $  O&&XO&&&O**XX@@*X@*$OOO*X**$O$O*XOOO$O$OO*&XXX***X*XX&X$O$ $***@X&@&&&&*&&*X&@&.@@@@&&&OO**$$OX*X*OO**O$**X*O$",
"$   $OOO$$$O$O  $O.X&X$X@XX*XX**&@XO$OO$$O&*OOOO$O*OOO$O*OO*@&*XXOOOO$$O$ O$**X*OOOOO*X**X@XX&X*OXX&@.@XXOO$OOOX*O**$*OOO OOOX*O",
"OO  OOO$$$$ OO$ O*@X$X*X**XX&XX*&XOO*OO$O*X*OO**OOOOO$O*&X$$XO&&**OO$ $$*$$OOO*$O$OO$O*O$O*$$$$ $*$O*X&X&&**$O*O*XX*O*OO$$  OX*X",
"*O OO$$ $O$$$ $ $$*X*X@X&@X&**XXX*OOXO  OOO  OOO$OO**O$**.@XXX@&XX*$  OO$OOO$OOO$$$OOOOO$$O$OO$OOOO$$O$OX&XOO***O*O**O*O$O$$O$OO",
" OOO     $OO $$ $$O*X**X@&X*O*XXXXO$*OOOOO*O$O$$O$**X*X&XX.@.@X&@**XX  $  OO$$OO$O*O$O$OO$O$*O$*O$OOOOO$*XOOOX*@&XOO$O*O$XOOO*O ",
"OO*O$$ O$$O $O O$ *XO**XX&XXO**&X***OO***OOOOO$$OO***XXX&&*@@&XXX&XX*O$$$  $OO$O$OOO$$OO$***O$$O$OOO$O*OX&O$OX**&*OOO*OOOO$$OOO$",
"O*O*$O $  $OO*$ $$$**OX&*****X****X*O*X*X*OO $OO*X@X*XXXXX*XXX&XX&&@&*OO$$ $$O$OOO*OOO*OO@O$OOO$O***OO*O*XOOX*$OX*O*OO*O$O$OOOO ",
"$OO**O$O$$$OOOO  OO*O$**XXXXX&&X@X*XXO**O*O$*O$O**@&X&@&&X**O$*O*@XXXX*OOO $$O$$* $OOOO*O*O$OOO*O*XOX*O$$XXXXX&XO$OOO$OOO$O$*$OO",
"$$$$O$$$$ $O*OO$ $$O$O&X***X&XXX*X&X&*XXXO$$XOO*OX&*&@&X*X*X*X****&X***OOO   $OOOO$*$$OO$$O$*OOO**OO*$O*O*XXXXX&X$$O*OXO O*O $OO",
"*O  $$$$OO$OOOO$ $$ $$**OX*XXOXX*&@&&*&*&X$O$OOO$XX*&X*X*X*XO*X&X**X*X$ $$O O$$O$$$OO$O$$$O$O$O*O**OOO*O$X*X**XX*O$$OX**OXOO$O$ ",
"* $$$O OO$O$$OO$$$ $*@*X*XOXX*X*X&X&@@@@&O OO$$OOXXXX&@@@@XO*XXXO*O**&X*O $$ $$O$O O*O* O$ OO $X*O**O*XXOX**XO*X* $OOO$*$O**O $O",
"O$$$O$ $O $$ $$$ O $O*****OO*XX*XXXX&@&&* $O$O*OO&&XX@...+@@&@XX*O*X*X&@XO$$$OOOO$O$$OO*O  $O$O$OOXO*OX*OX&XX&XX$ $$OOO*X*O***OO",
"$O $OO$$$O $O$$    $X**OOO*X***X*&X*&&&XXO$  $X&&X..@..+++@.X&*X**X**XO*X*O$$$O$*O$OXO$XO $$$* $OO$*O**O*XX*XXXOOOOOO$*****OO*OO",
"$O$$O$OO$O$$O$O$$  **$X**XOOO**XXXXX*@XX&XXO*XX&.+@.%.%+%@&X*X**XXOO&&  *XX*$OOO**OOOOOO OO O$O$OOOOOOO$O*X**O*OOO*O$$OO*XOO$O$$",
"$$O$$XOO$$O$$$$OOO$X*$$*OOOOO*X*XX***&@&@&&&&X@.%....%.@X&@&XXXX***O&*O$OOX*O*O*OOOOOO$$$$O$O$OO $O*$**O$**X*OXO*O$O$$*X*OOOO$O ",
"O$$$OO$$O$$$O$ O$$*X$OOXOOO*O******XXX@@..@.....%.%..@&XXX@&X&X**XXXX*XX*X***$*O$O$O$$$ $O$O$$O**O$$OX*O$$O*XX***O$  O*X**OOOOO$",
"$$OOOO$OO$$O$O$OOO@**&XOO $**XO**XX*X*@@...+%++%.%..&***X&.XXX**XXX***X*XX&@O$OOOO$OO$O $O O$O$O*X$O*OO*OOO*XOO*$$   *O***O$O$$O",
"$O$$$$O*O$O OXOOX&@X*X*O   O****X*X*XX&.@&&.++++%.&@X*XXX&@&*XX*XXX*X*OX*XX**O$O$O$$O$$$$$$ $$$O**OO*OOO$O**OO*&O$ OOOO*X*O$$O$O",
"$$ O$$OO$ $ **$*@@&***$$  $ X*XO***XXXX@.@&X%oo=.@&&X*X*X@&@O*XX**&XX***OXXOOX*OO$OOOO$O$$$$OO**XO$*O*$$OOO*OX*XX$O$OOOXXOOO$OO$",
"$   $ $$$$  OO O*@XOXX$O  $$*XX*X*X**XX@..&@+%@@&&@&X***X&X&*OXX**X**XX**&&$*XXO$OOO*OO**O$OO$*O**O*XO*OOOO*$$$$$O*OOOO***O$$*O ",
"O$OO$ $O$ O   $O&.XOOO*$$  $O&&&X*XX*X*&%..+.&&*XXXXX*XXXX&@***X*******XXXO*X&@X****OOO*OO$$O$O*O*XXO***OOO*X*$$ OOOOOOO*XOO*O$O",
"$$$* $$    $  $X@&O$O$*$$$O$ $OXOO*****X.oo+.&.@XXXX&XX@@&*X&&XOOOOXO**@O$O&X&@@XOX*OO$O$$$O*$OO*XXXO*XOO*$*@O$$O$OOOO$$OO**O$OO",
"$O$$X$   $ $$OOXXOX$OOXXXXX$O$  $ O*X*X&.%.**@@&XXXX&XXX&&@@X&XOOO**O*XXOX*XX*X.&$$O*O*OOOOOO$$O*X&X*X****OX.X$X$$XOOOO$OOX***$O",
"OO$$$$OO$ OXX*O&X***OOX**XX*$O**O **XX*O*@&O$$*&X&&&&&&XX&&&X*OO*****X&X**&X*XX.@OO O$O*X**O OX&&X&X**O*XX**&@O*O$$OOO**O*X*X*O$",
"$$OO$$$$$$XX* O&X$$OO******XO**O$ $*OOO O&XO$O$*@&X&@&XX**XX*****OX*OX&XX*X*X&&@.@*OX*$**X**OX@&X*XX*XX*XX*X..*O$$$$**X*X*O**O$O",
"O$OOOO$O OXXO X&X  $X**XXO***O$O O$O$$*OOX*$OOO*&X*XXX***X**X*OX****&&**X&X**&**&+%@**XOOO*X@&X*XXX*XXX**@&&..&*OO$ $X$O*O*XOO$O",
"OO O$$$$O&*O$$X&O  $*X**OO*** O$$O$OOOO*$XXOOO$O*XXXXXX****XOOO**X*$O*XOX*O*XX*X&++&X&@@&&X*XX**X&@@...@*&@&X@@&@&X$XX*XXX*XXOO$",
"$OX*X*OOXXO$$X&* $XO$*****XXXO   $$$OO$XO**O$OO*X*X*XX**XO**O**O$O$ $X*&O$OO*O&&@@@XX&&&&@&XX&&&@@%%.%o@*OO*$O*@***OX&X&&***X*O$",
"OO&@&X@X*O$O$*X$ ****X*X*O*XX*O$$$O$$O$$OX*$OXX**OXX&X**O$*XOOO$ $O$O*XXO$OXOX&&&@@&X*&@&@&.XXX&X&@**@X@XX*OOO$*$$$$$*X&X*@XX*XO",
"X&.&X@&XX*$ O&*OX*X******OX**O$O   $$$OOOX*OOOOOOOO*$ *X**OOOO   $$O*X*XXO$$*@.@X*&X*X&X&&&X $O*XOO*O**&*OX*$$O*OO$OO*X***X&XX**",
"&X&X@&X@..@*&@&X***O*X**O O**X$$$$$O  $$**XO$**O****O$$**X*OOO   $X**X***OOX@&&&XO$X&X**OO*OOOOOOOOOO*O**X&@**&*O$  OX*X&*X*X**X",
"XX$*&&&@@..%%+@OXXX*$$$  O$*$ $$$     O$O*X*XOO*X***  OO*****$   $OO*OXX*@&&&XOO*O $O*O $O*O *$OOOO$O*OX***OO*XX&@XO***X&X&XO$X*",
"&*OOX**X&&@...&***O   $$ $$ O$ $O $    $OO***OOOOOOO  O*OO*X*$O$O  $$*XXX&&X*OO$$$   $  OO$OOOO$O$O**$O**X*O*O*OX.&&*X*XX&XXX*XX",
"X&XO$OOO*X*X@.&XXO   $O$OO  X*OOO$O  $O$$OXXOO*OOOO$O X*OOOO*$$$$$OXXXXX***OO OOO$$O  $OO$OOOO$$**O*XOOX&&***O*O&@@XX*X*XXXXXXX&",
"**O**O$*@X**X.&X*O$ OO$ **$OO$OO*O  O $$O$OX*$*O OO$ $*OO*OO$O$$O*XXOOOOOOO$$*OOO  $  $ O* $$OO$*O*OOO***X*X*OO$**&&OX****&@@XX&",
"X$ $O*X*X**X*@XOO*O$OOOO O$OOOO$$$ $$ $$$*$*XOOOO  $$O*$O*O*OOOOOO$$$$ $$O$OOOOOOO   O$OOO**$**OOOOOO*O*XX***OX*XOX*O*OO**X&@&&X",
"$  $O$O*****X**$OOO$$O*O O*OO$$OOO$O $$O $$ *OOO* O$$OXOO**XX*O    $$O$OOO$OOOOO$$ $$O*OO*X*X*O$O****O*X*&X*O*XOX*O$OO$OOOOOOOO$",
"O*OOO$$&XXX**OXOOOO**XO$  $O$OO***O $ $$* O$*OOOO$  $*XXXX*X*O$   $O$OOOO$$O**O$$ $$X*O*X*XX*OOOOXXX*XXXX*XXO$OXXOOOOO$OOOOO*OOO",
"OXOOO $X&***XX****OX*O$$ XOO*OOO$*O$$O$$OO$$*X*$$O$ $**X*$**O$$$  $O$O$$$$OOOOOO$  $$$$*XX**O**$O*OO*OXX*X&*O $*O**$&*O$$OO$$ $$",
"*O*OOO$$&@X****X*O**O*$X$OO*O*OO$O*$OO O$*$OO**O$$ $OX*$$$$O$$OO$O$$$$OO$OOO$OO$O$O$OO*X&@&OX*O*X**OO**X**XO$ $O*O*OXX$OO$$O$$$O",
"OO*O$$O$X@.@&@@O*O$XO*O$$*OOO$$ OO*$$$ O$OO$$O**OOOO $O$$ $$$O$$O$ $O$ $O$$O**OOOO*$$***X&@X*OO*XOO*OOOX*O**OOO$XX*O$XO$  OO$$*O",
"O**OO$O**XX...&*OOO$**$$$$OO O$$$OO$$O  $OO$$OX*XXO$O  O$$O$O$O$O$OO$O$$$$$OX**OO*$O**XX**X*OOO*O$OOOOOO*XX@*X*O**OO$OO$O$$OOOO*",
"OOO*OOO$$OOO**XX*$O$OO$$O$$$$O$O$O $   $OO  $O*X**OO$$$ OOOOO$*OOO$OO$O$$OOOOO*OO$OO*$*OO**X**O**OOO$O*X*X**X&XO$XO*O$O$OOOOOO$$",
"OO*XX$$ O $  OXX&X$O$OO $$O$OX $$$ $ $OXXO O$$O$$$O$$O$$$OOOO$O**OO*$$OO$OOOOO*OOO**O$O**$OOX*OXXO*X**XO*****@X$O*OOOO$O$OOO$OOO",
"OOOOXX$$OOO  $O&&XOO$O$$$OO$OO OO$O*O*X@*$$**O $O$OOOO$$X*O*$OOOO$$$O$$OO$$O O*O*O*XOOO*O$*O*XXXOO*X*X***X*X***$OX*$$OOO$$ $$$*O",
"O*OOXX*O$O$$O *XX**XOOO* $O$*O   $O&X*X*$$$OO$$$ $OO$OO$OOOO$OO$$$O$OO $$$O$$OOOOX**X*OO$OO***XX*OO$XX*OO*XXXOO$$*@*$$OOO$$O$O$$",
"O$***XX$$OO*O XX&XX&*XX*O**O****XX**O$$O$$O   $$O$$OOOOOOOOO$OOO$O$$*$$O$ OOXOO*O**XXX*O*OO*O***X*O$OX&XOXXOO$$$ O@X*O$$$$$$$$*X",
"*OO*OOOO$OOXO$X@@@XX*&X***X@@XXXX*O$O $O$OO$ O$$ $O$OOOOO$*O$OOOO$OOO$$$$O$O*O***XX&&*X*OO$ O$&@X*$O*XOX***$$$$$OOX&*O$$OO$O$OX&",
"OOOO$ *&X*XOO*@%%%@@.X@X&@*&&&XX*O$ $  *O$O  $$$O$O$$OOO$OOO$$OO$*OO$$ $ $O$OOOXXXX&@X&XOO $  *@*$ OX&**OOOO$O$$ $X&X$O$$O$O$O*O",
"OOOO$OOX*XX&*@%oo+#+@..&&XOO$*XXO$$$  OX$$$$$O$$$ $$O$O$$***O$OO$OOO $$$$$OOO***O&XXXXXX*O$    O $X*&&XOO    $$O  OX*$OO$O*O$X*O",
"*O***X**OO&@*@%.++o.&X$*O$$O O$OOO $$$$OO*O$$O$O$$O$O$OOOO*O$$$O*O*$$O$$$$$$*XX**&**OX*OO$$     OO*X&X*O$O$O$OO$$$$X$$$$$OXOOX**",
"OX*O**OO***X**@&&&&&O  $$$O$$$O*OO$ O$ $$OO$O$$OOO$$$OO$$O $OO*O$*O $$$O$$$$X*O*&XOO*X$O   $$   OO*&@*&* OO$OO$ O$$$*OO$O$OOOXOO",
"*XXX*X**XO@XXOX&@X@X$    $O $O  $O $O$OOO$OO$O$$$$$O$$*O$$$$$OO$OO*OO$$$O$ $$O**X*OOOOOO$      O$$X***OOO O$O$O$$$OX*$$OOO$$OO$O",
"*X*X*X@@*X@O$O$X&X&*$    $O$$ $O $O $OOOOOOOOOOOOO$OOOOO$OO$O$$OOX*O$OO$O O$O**O*OO $O*$O      OOX@OO*O$O*OO$O$$O$$$$O$$O$$*X* O",
"X*XX*XX*O*&O$$$XXXX*O    $$O$$$  $$$*O$O$$*OOO$O$$OOOO*$$OOOO$OO*OO*$ *$ O*$$X$O****@*.&OOOOXXO*X..O$O$$*@*$$$$$O$O    O$$O*&*OX",
"*&&@*XXX&X&*X$&**XOOX   $O$$OO*$OO$ OO$*OO*O$OOOO$O$$O$OO***OO*O$OO$O X $*OXOO*X@X*&.XXXO$OX*&*X&.**$ O*&&*O$OOO$$$   OOOO**X*X*",
"X&*&O*XXX@@XXXXX&X*O*   $  $OOO*OX$  O**OO*O$O$$$$$OOO$OO$$OO*XO$O$$$OOOOO*O$*X&o@*&X*$ $ OOOOOO*&X@*OO&@*OO$$$O   $O $OO*X*$***",
"*XXO*X*XX.&O*OO**XXX*O      $O**O*O$$O*OO**X$O$$$O$$O$$$$ O*OXXX$$OO$OOO$$O**XXO&XO*O$  O O$***OXXXXXX*XO*OOO$$O$  O$ OO*$OO*X**",
"XX*XX****&&X*O $X*X**X$$   OOOO*XXXOO*O*OOO***OO$ $O$O$O$O$OO*XOO$OO$O$$OO*XOO    $O* O  $*OOOO*OOOO*&*$$OO**X$$O $ $OOO&OO*OO*O",
"&XXXX*X*X@@XOO$ ***OX*O     OOOX*XX*OXXX*O*X*O*OO$$OOO****OO*$$   $O$OO*X$O $$    $OO    OO*O  $ O**X*$$$OO $XXO**XO $O$O$*X**OX",
"XX*&&&X*&@XOOOO OX*OO$$O$  $$O**O****XX&&X*X*O**OO    O$&@&OXX@**XO *XX@$        X$$   $O*XO$ OOO**X*$O*O$$O $***X**OX*XXXO&*O*X",
"O**XX*X*X@X*OOO  XXO$$O  $$O$**OOXXOX**OX.*@XXX*$$  $$$OX@.&...X&X&@&&**   $  $ $$$$OO X *$  OO$O**OO*O$X*$O$O$OOO*O*OX&@@X@**X*",
"&&XXX*XX&&**O$$  O*O$OO $O$$$$OOOX&$$*X&XOX@&@&XX*X**X&XX&X@&X*OOOX*@&@ $ $  $$  OX**O $   O $$O$*X$$*&XXXO$ OO$O $XOO*O$*X..&.@",
"..&@X&X@&@***O XO   O**O*$*OO $$$O&XO*@&XO.@X&@&X*X*$OO*XO**O*OO $$*X&&*$$O   O OO$X$O*O$O$$$$$O$*X$OX..@&XO O*$ OOO**OOO*XX&@.+",
"X*X&&@&@@*&X$O$OO $$$$*X$ $OOO$$OO&.*$*O$$O$O*OO$OO $$X**X&*X*XO$$OXX@X*$O   $ $* *$ $  O$$$$O$OO*O $OX&X@@X*$$$***O&&**$O*X@XX*",
"*X*O***X*O***X$OOO$O$$$*$ OO$$OO$*@XOO $O    $ $$$O$$OOO*O*O*&X*$$*O&&XO$O  $$  $*O    $ *$ $  $&*O  OO$$*@*X*XXO$$*X&XOO$*X@XO*",
"X*X*OOO*XOOOOO$OOOO$$O *O $$ $$$OOX@XO $O$$$O   $$$$OOOO*O*XOXX*OO$OX@O$O$ $ OO        *X$     O@O$  OOOO*X OO$&*@XX*O**@X*OX$XX",
"OXX*OOX**OOO**OO$$O* $$X&*$$$$OOXX&O*  $$OO$ $$O$  $$O$**OO**OOOXO$O&X$$$$O            $*O    O  $O   *O**O$$$ $*..@*$$O&.***O@&",
"X**X*$OOO$OO$$$$$O*$O  *@**OOOOOO**$$O$O$ $$  $$  O$$$$OOO****O$OOO** O$O$$$    $       $* $ $$$$OX $OO$*O OOO$$**&XXX@&XO&@.&*@",
"*X*XOOOOO$$*O$O OOOO$$*XX&@@XXO&&@@$O $$$*@O        $O$$O*OOO*OO$O*@*XXO $$     $      $O OO $ O$X*O OO*OO*OOO$ X*O*O&@.@**@@&&X",
"X@&&*XXOO*$OO$$$O*&&@X***@*X**X@.@o&X*O$X*&*$*XXX* XOO$ OO $OOOOOOXXOX**$$              $$$$$ $$O**O&O$O$X$*OO$OX*&**X*&&OOO**@X",
"X@&XXX*O*XO $O$ X*@&*O$OOO$  $*@.@&&&@XOX*X**@@&&XXXX&$*X*$$ $OO$OOXXX*X    $O*$O$   O    $O  OOOX&OX$ $$ $O*OO*$OXXX&@&&@OOO$*$",
"&*X*OO*O***O**OO***O$OOO$OO$O OX&@&X&@X***XXX&X*X&XX*XX**$$ $$$   *X&X*O$   O$$OO$  $O    $  *$O*$XXOO$ O$O$XO*OOX&&XX.&XXOO*O**",
"OO*X*$*OOX&XXX$$$O$$OOO$OOOOO $*OX&*@@&X*X*@XX&X*X&XXXXX*    O  O $X*XOO**O  X $O$     O  $  $ $$$@&**OOX*$$*X*XO&@X&XX&&***$*XX",
"O*$O*X*OO$O$$$$OO$$O$$O$OO OO $XXX@@@@@&X&&&**XXXXO $O**X$O$   $  **X*O**OX*    $      O$ O $ X* $X&XO*&X* XX*O**O&&@@&&@XX*XO*X",
"*OO*XX@**OOOOOOOOO$O$OXOOO$$O$$$XX&X@&@@&&@**X**XO $  O*X*X*$$OO**XOOO$OOOO*$       $$ $ $ $OOO&X$@@.****XOX*XX*O$X@X&&X@@XX***X",
"X**X**OOOO$$$$*O*OOOOOOO$$$ OO  XX*&&@&&X@X&**O*O**$$$XO**XOOXX**X*O**O*X*OOO  $   $O$$  $  *&X*X&@@&*X*XXX****X*OX*&XX@@@X&X*O*",
"**$O*O O**X*OOX*X*O$OOOO$OO$O$O$O**@X&.XX*XXXO*$$*@*$OX*X*O****OX&*OOO**O**O$      $O$X$ $$ OX&XOX*OO*X**X*X**OX*X*X*X@.@&&X*XOO",
"OX* *$$OO*XXOOO$OO$*OO$OOOO$OO*O$OX&*&.&X&*@X*OOO*  O*X*****XO*O***OO*OOOOOO$      *O$ O    $X*OO*X***&X***XXX*OO*OXX&&&&&@&XXXO",
"*X*OOOO*$******O$OOOO   $OO$$$O**OO*X&&.XX*&@XOX*X$O$***O*X***OOOOO$OO$OOO$$O$    O*$O $   $OX*****XXXOX@*X@&&*OOO*&&@XX&@@@XXXO",
"XXXO$OOO*X*&X*XOOO $O$O $$$$$$ $X*O*X*O@@**XX**XXOO*OX@@@@X*OOO$OOOO$O$OOO$OOO$ $O*$$O*    $$X**XX**XO*X**X..%@X**@&@&*XX&@X***O",
"XXO$OO$*O**X@OO OO$OO$$$O$$$O$ $ OO*&&X***X@OXX@&X&X@@...&$$OOOOOO$   $*O$$OO$$OO&&O $O      OX&*XX*&X***OOX@@@@X*XX&@@..@&X**XX",
"*XXOOOO*O*O***X*O$O*$$O$ $O$O$$$$$O&@@&&*X*@XX*X&*XXXXXX@*$OO$OOOO O$  $$$OO*O OXXX$ O $   $$O*@@&*XX*X$XXOO@.@.&@@.@@&@@@&@*XXX",
"*XOOOO**O**O***O$O*XOOOOO$O$$O$O$O*@..X********OOO*X****XO$OO$$$$$$$$ $O$O$$OO $O**O$  $  $$O$*X&&XX*****&*X@@@&XX@.@@&@&&*XXO*X"
};
