/* XPM */
static char *_fe7bfdbc2924e068231a20acea29e86HcNywSsT3M4ifwjn[] = {
/* columns rows colors chars-per-pixel */
"128 128 64 1 ",
"  c #040204",
". c #2C2E2C",
"X c #543E1C",
"o c #1C1A1C",
"O c #444244",
"+ c #442E1C",
"@ c #545654",
"# c #342214",
"$ c #6C4624",
"% c #140E04",
"& c #5C462C",
"* c #4C361C",
"= c #343E24",
"- c #2C220C",
"; c #543E2C",
": c #645234",
"> c #0C0A0C",
", c #2C361C",
"< c #44321C",
"1 c #342A14",
"2 c #1C160C",
"3 c #4C3A2C",
"4 c #242224",
"5 c #6C5644",
"6 c #040604",
"7 c #5C4224",
"8 c #2C1A0C",
"9 c #4C4E4C",
"0 c #141214",
"q c #5C4A34",
"w c #4C3A24",
"e c #3C3A3C",
"r c #544234",
"t c #64523C",
"y c #343634",
"u c #443224",
"i c #3C2A1C",
"p c #242624",
"a c black",
"s c black",
"d c black",
"f c black",
"g c black",
"h c black",
"j c black",
"k c black",
"l c black",
"z c black",
"x c black",
"c c black",
"v c black",
"b c black",
"n c black",
"m c black",
"M c black",
"N c black",
"B c black",
"V c black",
"C c black",
"Z c black",
"A c black",
"S c black",
"D c black",
"F c black",
/* pixels */
"ip*3*uu*tr02000000%0020oo01u+ii#+i+iu*u4u*o-.;i;r&33*u3*#4i+ii4-o20oo0>000#*ii1ipoi*3u+iu#o#*iu;uu+33;#-2-i+ui+ui+ui+uu+pi+o0o44",
"*;rrr&ui1+2000%2o001o02po00or*p+.3u;3i+u4iipiu*3;u.p+ip+1i.ip+#-2o2i2%o-p0ou+4p+i+i3*3u+p+-4i+uu*4op*pp-ip+u+1i+p4o4u;+o4u3ip-p1",
"4u;*uu4o00o0000o20%o>>0opui0o-4i+u*u;u3;u+ip+3u*;u+;u+i4oooi+4i-poo00op4i#oo44-i+u+u+i+i+p#-p*p+uii+i#ooooi3u14p1i.4i+1iiiw;ui+p",
"-4iuu1+i-000000o00%>puuii+p+2>ooo43;3;;r;r;1i*ipu;r3;;uu-p-oi-p+-o22.ii+ipi#00oo-pu*i4uuu*#p#p+4i*uu*i+io22p+4p1pui1#ii+<p*u*pi*",
"u*uu3+4#o2o-0020%0o13r*<o4--o00oo-op*3r;;;3*o4puu;r;u;3ri44ooop#i1#*<+<poooo00o2oo-i+i;u+u+444ip#+u*i.u+4oooo-ip#+<+o+wu*uipu+13",
"u+i.+ii42o400020p1<w;w3;uiiooo2o#iooou;ur&;p#+i;uuu*ui*u;42oo-i.4#.uu*u*u+p-p02#iii#oi*+i+ip-+u+ii+.p#u+ioooooop44iii<*u;3;*iipp",
"oo-4p1o0op2000o,*33u.;u3+.*ii.-p-pi-oo+u*3r;u.++uu..4.+4-opopi*##+ip*+iu*iiuiop-.<+-o#up++*i4-uu+i444u+4ooopp11i4#++<;uu;3;u+i#4",
"p2oi#o0o0200o,1+++4u*u;3.*u+3<#oo4i.-2o3uuqr;up;;;u++4oo4p-1#i1pi#p+i;3+uu*u*#--o-p#oip-4ui#+#4+i*i-#oo4-##i##+<*4ii+u+u*3uue;+p",
"1po4oo2o0oo-i+i#pp+u3*3&;u33r;poo20p1p-.*p;uuuu;rqr;u,puu;pp*3+#opo1p;;u+i*iii4opo-po4o24++up##-4i#oi-i<i+o#1p+iii+i+4#+uu++;uu+",
"i-0>00o2#1o#p+i4-pu+uu3u;u;u;3io-i1oi#--ipoo.uuq;rr;uu+;3u+iu*i-o241#uu;3ip#4#ooopo2iiooipi#+#-2-2p-0-u*##io##4#i4i4oo4#*i+ui*ip",
"+-o2o2#.i80o1i1#-+.+up+i+3;u.*pi<p<p,#.op14.u*;.ur;+4;uu;uu+4oo0pp-oo-#p+iu+o4--ooop.#o1*ip4+-o%o--2oi+u+ui-o--41####-i4i+uuuuu+",
"ip-o-i<io0-i<i##-4o44-p4u;;u;ip+.#-+2o4=+..3;3;+-p+4u;i*;u4oo02piii+#+p-1*u*iuuu1o2p1i-iyi#+i2o82p2#i+iiu+#p-opi#4+p##*i+i4+;*;i",
"1o2p#i,10pip#i+p--o200p+ii3*3p+i1po#4-o;ru+.u3r;+po+3+4.pooo0oi&X+i**#+ip#.+ip.io4oo4p2p*u+io2---2oi-p--+#4+i1--i#++#+++u*uii3u+",
"-22i+i+4#p<<+iiooo1p#po4u.*u;4-.+---+-4-3*3;3u;;iu;..+ipo2-0-iX&3u+#w+p+++44p+i.2000ooo#+i+-28--o-+2-+i#----p#po--iip+-pu;3*+i4-",
"o%oipip2p#+ui+#-20#*u+4-pu.u;u4-4ii-iu1-p4.ui.uup+r;uyuup+o#u#Xi---#+#-puui1+.+o00pi#pi*iii424p22--o4##-o-p##ooo2o2p#+#-+3u44o-4",
">0-p-+-o+u+4.+#oo#pi+.#p2p4o.u-oo++i*ioooiup44ppp44;r+.p4o33+wXpi#-1pi-4i*ipp+400pi1p<+4#pp28#o8000#ii-o--i+oo-202-ooip4i*1#+-o0",
"oip-iupp.*.u*poo-i.i..i*i4224-.-02-1#pop2o;*o1o#+;u;3uyo+i;rXrui+;iu*;i4o4pp-4o%+<i4#1poo-p2oo22--2-iio-#u+42i#o20oooo42p+p+40o2",
"-p+i*i.ppu4*p-oopip14o4i+4oi-41i-000oi1o0%ppoo.ip+r;;+o-uu;3;3*iur;ui+4o-0>042o+31#<.#oo-po200-o#o-o--i*i+poo#io-2ipo20oopoo04pp",
"#*uipp+#++oipp2pi+u.-oooo4i*4o0op0000o0-po00-4i+iur;3;-i;u;;3;3i--4o4o00oo-p#+u*ioo0000op20o82oo2o0o20.3u.1#pi4#i2#i+-i-op22-.-#",
"oipp+u+#.-o#p-opi.<uiii4-o4414-2o00poo2oop2ooppi4*r;;3#-u+ur;q;o44p4p-p4u3i4-pp400000000000000o2242>%iuu*u+piio#-o2pip+#ooo84-#*",
"-p-+i444i#-p-p#i4-pp+4opppoop#iuio00o0-1<p0oo1pppuru+io#*i*3;;4<p-4#oo4ippo2000>0000>000%0>00224--222ir;uypi+o#+p2o8-1ppp22o-o44",
"1uii#44-p-ooo#+-ooi+p1p+iiii#pp<ip-pp000,.o00o+;uu;r;+##u#;u+-#+ipppuuii*i+4p+o>>0oo000opo>0>02-#1-i+o<r3u*uu+<<*i20oo--oop-o2#i",
"u+u.o#p4pooooi-o-i*p1i-p+.+iip#+-4#p<#00opuu10i3;u;;3++##+7;i4#*u*u*i*3*3ip4p4>>0o20000002o2>>-.i<X3w+37u;i*.u+u+i+--opo--ooopuu",
"u+ii-244202o+-oo-pi41pp4-i-44#4-#-#i#po02.rr<##*;++*7+#2+#*ioi#.*u+ui*3po0ooo>0o200>>0>>20021<p<ii3;u3;u*u3;i*p#4#pio#-#<o0oopi+",
"i+44ooooo-ooio##pip-p4-p#ooo24#ii#.i+--oop1iu.-u73u*$+2#y#o-#+.*3;3rup+o0000>00o2%>>0>>>02-wwo-ii+i.<;3u3p#4i-oo+p1-p-pu3ip-o-#i",
"ip22o8p-ip2o-pi+#--p-4o4popoo2oi.p1pii#1-o2p<ii*7Xi#u-i+++%0pp*urr;1420>0000>0>>>>00>0o-p11i1iwip+<u*341-opo0o--p.oooiw<+pi<opop",
"op4o24ipp-oo-#.ipooop4-io-22oo24++4-+i.ii<u+-iX3;3++#-+ii22++i+3;poo00000022>>>>>0>02o1w<i1iiiXu+i+uu+2i4-202+iii4p-ppipooooop#-",
"p-.o0i+p4po2o1#4#--p4oop#i8oo-p+-o-#i+#+p*;q#-i*+w*++i+-0>*wi*ruoo0000>0o40>>>>0>>>-11i<<<w<p+ppiip*uo4ii-o+uu*u+u+p1ipo24ooo-<i",
"-000p0ooooooo-ooopp44o-oopooo4p#oo-p1iip#*u+1i###++i#*i22-w;w3+4o0000024-00>>>>>>>1--i<*<u3+iu*u*iuu#o#+po#3;up33uii<.#+ppi#0o-p",
"02p-ip-ooo#22op-o-o2o-o-ooop1oo<#pi#.1*#+3u135*o+ui-2-022#X3:*oooo-00pppo>>0000>>1i##Xuii+ii*u*33i**i#+i+-u;i+u3*u4<;wu*u#pi-0o2",
"oo4pp#-o--1o-p---oo-oooooop1i#opii*ii4p+i;q#;qu+w*io2o###7Xi.-oooo00-ooo0>0200>01<i-i+w*u*.+u3;3u++u-o444puu*u;3+.;ur*i#+<+pi1op",
"op4ii-p-pii#ppppop-opp-1-2pi.ip11p.+opi##++*3#+3*i-##+w#+**ip-00ooo.#o00000o>2211ii##i*w*iiu*u3;upp+.+1o1<;3uui++3&;i*i+44pp#+i#",
"oiiy-o-o#iip#po4p-op-#pppo-ppp1.u.+pi+ioo4i+i##+p#u8-#X#2-i+42#000oo0o0000-2221#+i####<<3;u+i*3*uuu;u+4iuu+u+.+3;iuu+3iu#oo4op-p",
"pu*p4---o41ip-o-opop1i1-4ppppp+<*iu+p<*40o-o#2o4+*-2o+io0-u+o-->0o00,o2o00020-i+###+<#<*w*upp;3;;;*ipp-oopi+i+iu*i*uu*u+p#oo2002",
"o4p44p-p#iii#-op-p-4oppopop1opp.3uyu+.oo14oo0o#oo2>-#+o0+u+ioo>000opo0oo020>2i#######+i<*uu#;3uu3uuu#0o-p--o4p+u#p+i+i4+#-11#p1p",
"2oop4-p#pi#.i#p-ppi#opippoopp24i.+4ipo4p4p#2-ioo0oii2o>-wui#00024p1p0>oo0o02*i##1i#i##+<i+4+++.uu;3i0o1ii#piu+#44+i-4#o+iooppi+2",
"p4-ooop#op+p4p-p4--p-p.pip-4-o-pp+4oo1upo4po-0oiuii2#0o1u*+0>0opopop2o-o02--ii######+++i+ii+uuu+u*o0oi*u**u;3up*u-o#oo-i22--o000",
"-#p1p-ip#i4#-o-ooop#o-pp*ii#op4-.44oopooo-o20oiiio0i#-p-pp4>>00op#p-opoo21+8####-+++i+1+*+uu*;;+uoo#;ur3uu*ioi#+p#*i4-4-o-+p-2o-",
"p-.i#-pi14ooo#o2o-pp<#+opyip-oop1,pooooppp02piiy--4oo*r+pi0>0oppiip02oo2-#<8--##+i*i++i<*u*i.uuuo4+33*3;r*#4po4p-#u+3u+-oo2o--op",
"#4i+1oopoo2o1ppp-pp1puup4ip4p#-#+up.-p.,ppi#i*u<+u#ou3&uo>>0o1p1po0op-2001#---##+#i*ii+iiuu+u+o0o#4*u14-o44#+i#o244i+ii402oiiou*",
"+-ipo2ooo2oooo2oo-oop.411.-+##.#pyi.ppy.4u<.<&$Xwi1#+iuo6>>o0oo4ooooo->02-<i-i+#-+##+++i*+ii#o00o1*i4o00oo-pu*p+4-24-4o22028o#wu",
"ipp1poooo4o2o-opoo0opoii+ii44oo-1pp1+;u*.*-p&$$wX#i1o0o>>>0000opp--o0>2---##ii*+#i+4i+ii+ioo0%0o-p400ooopp#-4-ooooo0020>%>%ooi*u",
".i#4202opooooop-po0opoppp4oo-oopi++p*3up+4ow&r*#i+2o00>0oo<1<1<ipp-0>2---o-##+#-+i-#*i+p+22o24-i-o2o-2202poooo0o20-1#o2000>%0p#-",
"2oo000ooo00opo0oooo2-oo2o2oppo-pii*uu;;poouupp4op00>000p2pu,ppipo2>0-1---o#+##8-2-pii14p02p+2oi40>0o00ooooipo-p-o#uu+#80o200000>",
">000020000oo02oooooopoopooo-##ppp+i..+io41i.oo0000000>002op.p#o>>>2-<<8##ii#4o#+-p#+i4o22#+--20o22oooopoop<p-op4o-42oo00020>>>>6",
"00%00000oooooopop,1ppopppo#pi+ii+ip*u41-ip+oo000000o>0o0o<.i*p>>-i<1<i-p###--p-<i#p+i+-4oip-0o#o-#wip1p-pp400o20002o2000>0202>>>",
">00200op-ppooopp-4ipoooo#oo#p<*3<*u;u+oop4p0oo00%0o00opop.poo0>ppiiXwi-#-#8#--#i4+i+<po-i+i0---pi+ippipp20000%001p-oo220>00o220>",
">02oooopooo000o,#ppopppp1p-p*i*i*uu;uuoo,3w-p-o220oopppp.ooo>>#<iXwXw<i-#-2ii+-4#+-4<+0i#o02oi+i+up+i.oo20>0oop--p#p-p220>20000>",
">>2o,ooooppo2o0022opiiiop-piiyuu3;.ip42+&$u21p20%0p<,+opoo1o>0#XuX;q3ii#+i+#+<#2#i4-#22po2o0pi+ii+p+u<1piopiip1ip-o-p#o0000220<#",
"-%02p2-oo1<1ooo000ooppiipio1ii*u*3u444p#*u1op-0>o2#i+1220opo62--+wr3u###++i#+i8oo-0oo+o-o--2i.p+ui+.3pp00w<w.1op-p-oooo200>00-<<",
"uo>00pw1-opoopp2oo2oo2op4-oop44.p.;40opo4io00>>o0o12o2opp#.o01-02-###+++4p-4i+2-o0-#<<p>%%0#p#pp*iu*124-...pup-ooo1p-p-0>>oo-ppu",
"ui20oipi<1p-1-ooo2o00ooo-po-p1p1up4op*up+40o0>0o2220%op.<i2oii-80200o+iii#4i42oopop<1p-2o0-<+.44-4ooo+.o+iurr<.1o-p-o-o2001*,#i+",
"+i*o00-wipipooopoo000oo-pii1#pi*+44+i.uu.oo20000002%0p<*,o-<<;wi-o208-#+pp4422#pp#pi.2o-42<;ip-oop4ipooii.i*u;up.1p1pppo2,2-.i14",
"#*ii1pooo-.ooopoppppo-oppi1ioiiuip-p4u;ue-2o00002o22o-pyo2<w$&wui-oo##14+222#ii<#1pi-o2o21<u+#opiuup0op.o41..+O9u*iii#p22%%oi<io",
"p+u+p-o0ooo-p1<1p--11p#-pipp-i*.+#o3u;u4*-0002-22-o221-opi<w3wi+ip#iiii20o-ppi+<u-po#oo22.<+4i+i+4o0orwu<i444oi&r3yi.+202o20pu3u",
"4o4ipopo0ooo1i<i-pppppppp##o-u+p+--3;upp;o>%21-21-22o-0iiir<;#-ii4+<++p%o-0o-<Xu+p#oo-#2#<+o##oooop+<3&u;i+<ru.i+.14-oo-p<p2oiyi",
"000o1-ooo,4o1<<+pp#p-p-#ii+-p#p+poi*io.u+%%%2---#4%0-o-iiXu1iooo<ipp-4-i+o2op#u+i*#o#<p2i*4pui2o2p<3+i+i*up*u.4o00op-o1<-4io00o>",
"0000oop.oop2p#+poo-po-pp4-p-#.#ioopu41+e4>2822ooo20oo,+ppXip#i##*-2802p1ppi<+i+piu+iii-p-iuu<42pi+i+pu+pi+p4oo0202o-pu<p-oo%>>>>",
"0000oo.<o-p-ppp##pp#op-##4-p#i+-p2ipooppo--22242o20,i+-2oo#-o2o-4oo-#--p#opXu#p+.;up-o-i1u*u;o0i#p*u;u4444i+4p4p;wi+uyi2o20022>0",
"po000>000o2op-oop1#i#o-pp-p-opp-o-po21*iui-00%00022i+i224#*+p#*<i00#iuu*u+iu;u+i+u.+o-pi.u+ii-o+4-u+3p1ii4ipo4,1ppooo000%0>02oo-",
"4oo0o0>000ooooo1i#p-o--p-oooop.oou*p2.p;#+o%>>%o0%-i<o%2*;3w+u;uXu-i<i+uiii<+414i++#o2+i#+uuy-4<i+i4i+uyip.+.iy.+u10p-000>020o1p",
"poooo00o2oo202-#p#i4oo--i--oi1oopi+4-u;pp;2>%%220pi+4%82u+u;w;uw;;#pi+<p-+<4-i4o44i40i3*oi*u4ipy4i*ip+p-*u+;u*3r3*o1wo>20%2o2,2p",
"2p1p02ppo-oo-ppi#p#2---pi#o#p#2%ppi2pu+#uu2228op-i#o220%p+u;uip#*#pop114ipoo4i##-oo2p*uio4u*oi--1.i4ou+iu+3u43*io4o-0>0000022o-p",
"pup0o,ip-o-,<i#p#4i4#<##-#ppp8%o2o40#+-pui>2202-1-2p#8%2+i+ippp#pp.4-4#uy2o4ii4opi1p4i*u--iuo#4u*i4opp*.+4+u*uuoo0o>%o2%20%0oopp",
"-#0%-+i-po-i*#ii-44#ii##.#p--2000ooopuiu*02%8%2-22pio22i<+pp1+*uu+u*ii+i.*i.+po-<uyp#;u+i+ipoo+#up0-.1iu3*.up400o20oo0>>>00o22i+",
"o000ooo2o2o14oooo-oo#+i+#4ipo>o-ppp1u*pu10%%%%0020o2>o-wuuXu*uu+u;r;u3u1+.+pip4i+pi*oipup+i4-pu.-0pp#4p*.4pooo0opiuo%>%002oo020o",
">2p2-oo020o-i#---p1--piii4#102--p-pi+po.o%8%2>2222o2%o<*u+3uu;+4+;;3*i4+uui+*u+<i+3.24+*ii*2p1po>o*3;u*4ooo>ooo2ooo>%>0o202o20o>",
"0002.-02oo-<iipii#i#pop-p#oo01<-p4##441o20>>>%8-o1i04<3+3u;;i+i444iuu+u3*u*ip+ieu*,o0pipp+#ou;-0-u3;;3pooo002op<*p>%%022o2oo1oop",
"00o<<200o-pippip+pip1oo0opp8<yio#ppoppio86>>0-o2o#o2<X3u*uu;3iipiu#p+up#+i.+iu.+up4-*.4p#p#o14oo1.;u344.p1o0i.#+0%0o1oopo-o2op1p",
"o#1.p22-1pi<+o-p444-oo-o--iiwro0o000opo2>60>002o220piu*3;u*ii;3+*p#44o14#+i44+i.+i4iu+p+ppo0oo-2puu;4ooopo0oppo%6>-p-opo-o002oo2",
"2ppoooopiiiippp4#ip4p#<22pp.400>%0>00%>>>60>0>%0>>1<<;iu+ii+i+;3uuu3*+i+i*4-4p*3*i2.p+ie+o18#ip-#+pi-o00o0pip006>0i0--o21op00000",
"o0oooo-#<i+p<i+-#o#pi#po2ooo>0>>2>0>66>>0>>>>>6>0,Xuii-iii+i;u*uuu*uuipp#p-4ii4i+-41#p.p4i14i3#-p4+u0o1o001o6>>%>-i2p22.i#p11o-o",
"0000oop<+.p-i+<i.<*ii###pp#o>%22202>>>0>0>>6>>0p<;3i---#+i#4ei++uu+u*4+#++i#+p-00ooi4o4puuoo.;po2p1o0i20000o-00>0p2p2ooio22oo2o0",
"opppoop<u+1i.i*ii+i+4i+p-#o%>0po0>>006>0>>>op1p<ui+4#o#*i+i444-u;u+i#+;#4+i*i+4ooooo04oo4oppiyop*io2000000o1o00%20%02o2o20p#0>>>",
"-#4pp-<u3p.ii+i+44##-400oo>>2220>>>>>>>>0-,-p<i.i4##+#+.ip4+p-o+;;iopu3+i444oop4ooo01pp>o4ip400uup-%00oi1ppo>20>o%04o24o2o1o20,p",
".#<w-#i.1iip*+ii+<+p400%>>2220>6>>>662oop.ipip.+1#+1p+.+i4#p+iipi+4-+i#44420o-pp4po-popp+=4oo0ppp+o>>0-ipio2%0%200iio2oo0oo-po4X",
"*1+iipoooo.+*u*u+io42o2o22202>>>>6%2#p-#p#p*<1*ii+p4i.;pp*;ip+poo04i#p41ooooo#ppopp00pi4pop+oppop40>>2o0o1o>%2%02ii-22>%000oo2iw",
"3ip-+-op0244i+p44o228oo1-0>0%>>>>21ii#i#p<iip+w;.+i4p+4#p4p+#+2o4oo#1-#+#-ooooopo0oopi.4opio1up+.o>>2oppip0>02004po0>>>02>020pwr",
"*p-yi2>oo#i+p44o%o>%2o-2>6%>0>>>o1-i-p#1#ppp2.;3*u*24-pio-4ip+i;ii+#.444ii#ip1ppo0pir<pp+,4pu+.y-%0po1oop0>00000%o%>2>%06>002i<*",
"4p#o0>ooopi4pi4-o%8##i->>2>0>>>--#+i+op1ppi++*+u+4u*u4opop+4+u;i1u4i+i##*i4pup.ppioi3*i;u4u.i*.o00oo2po-200>00000000>002%>0%0#-o",
"02o>00o002op-oii8o##+-0>%2%%>0p#4-ipppip#u+p.*.+u44u+p4pp+iiu*io#+#4#+..e.41y41p3i0p*p+rp-p44po%0o0opooo02>>0>>00>0000%022>>0%00",
">0>>>o02op-op2oo2#opp0>>2%2>0-1-#-#p-ii+i+pp4ip+pip41-oo44i;u-o#+i4-p.p.pp1.#4ip.opuippu+oo00>>04-p-ooo00>>>>0>000000>>%>0>>00>>",
"00>>>000oi#opp-#ui0o0>>0->2%-<i#-oop-44pii##p+#pp4pppo##-p#i4p+4#4#+#.++p++iop..op;po.44o00>>>o22po2200>>>>>>>>000>022>%>>02o000",
">000000o1i-<-02o82ooo>>-2221<<i<-o2-op-#io4p++4p4-op-o#poo#p+ii##ip#..iip+i4o+opp=.p4400>0>>o02o0o2000>>>00000>00>>11o22002oo-00",
">0o0p-0-1p#+%2800p-2o022222#i#####o---i#2o-##pp+p+4-oooo284i+i++i##+++i.+ip04po#yp4o0o00>>0>>0o2224o20000>>000>>%22#<#24o2oo0oo2",
"o%oo1o2o#-o%8-22ip0222oo2oi12-ii*#8o##i.-i.p4-op+.4i.oo-o2oi14-i#pp4i+*u4#oo.4o-p.o000>>>0000000o200o000000o200>221#X<#2oo002o=p",
"1002oo,1#2o2-#ww-2020022o#pip#+i#4--#p#ipi41oooy4oooooop#-#p#4#4o#pp41.u#444i-04.+oopo>00000o222oo02-00>000200>>20o#<##o20000pi+",
"u->>01X;o022o4i<10%20220202pop.#o--#p#+i+4iio-po4oooo#o2pi+pi+4o#oo#po+.pp4#pop.i*-p#oo000o20000oo22000>>>200>>0>0--#-o200,-o1-.",
"uu<2oiui-2202##i->0>>>>0>6>22.*i+p#o#pip#p+4#.o2oooo2oo-1p#ipip#i#+piie.o414poi1.io4po4000000202-2020>>>>>00>>%>>>02--%22ooi<ip+",
"+3wo2o-pp2-o1i+o2000>0>%0>>2oo1p#4#-#+p#4+p+14-4--ooo24p44pp4o4p-i+i.i..pppoopo4p4opp000>00002%2220>>>>>6>20>%0>0>6>>00122o-pp-o",
"i*1p<#22ooo-o200%20>>0002>2>6%#i4-pi1#i+i+po02##.#o4o022p-pip4p.p4ii+<.4.oo40ooooo0o2%0>>2o>>>%%>>>>>>>>>2>>02%%>2%>>0%0>020-.<i",
"p4.upoo002222oo22>0>0oo2-0%%2%44##p###pp*42o2p.i+po2o2oop-i.+pop,pp..po44oo0000>%2%>000>02220>>0>>6>6666>>0>6%6>>2-<-2o2o#-0oiw;",
"o02*i-o20024p1o2020o-o0022202p#i##+#p4o-p224opi42ppoo-p-pp42ooooopp.ppi-oooo00o0>>>%oo00200oo0>>>66%%6666>>>2%>>22<7<-4o-<122opp",
"0o0pooo0-poo2o-0002o0>002o21o4##+4i+i-o--4-i+1o-o2o24ooooooooop1#.i.=+.4ppo00020>>>>04o0>>>>>0>>>>>>066>>%2>>>>>0o##<i##o#i02>>0",
"6>20oo2p-2o2ooo%2,220-p-o2---i+ii+i#+4oii-p.io002o%o---pp-pp-pp<+i+.+#,44oo000%0>>>>>000>>>>>>>>0>6666>>>>%%>6>0oo-*ip#ii-2%>%>%",
"oo0>222oo<po20202%%02p1o22piiii*<i#42o-<+o2o.4opopp-oo-p-oo-p4p444pp444ooo0o0000>>>>>>00>>>>>0>>>>266>>6%>>>>%2200222-4-i1>02o2o",
"p+p00>000002po22o2oo0oo<Xw#iwwXu+p+---op#ooiip1<*-#-o1po00o00po4oo4oo2o#.ppopp20>>>>>>>000>>>>>>0>6666>60%>>%2-#2222%>20%0202#wp",
"3uii<<ip220oo20212op<1iw3<ww<3u+i+io-3io0-p.<<X3i.i-o00>002o-p4po-p4-#p#-1<--pp-p20>>>>>0>>>0>0>0>>>0>%%%%220%%-21o0--#1p2o-#iri",
"+i*33ui1pp002o-.-2oiii*iiu;3;u+ii<+2#*i82p<iX3u*ii+1opo>0op112o-pp1ppp.4op.0pipp#.-00000000>>>>>>>>>%%%>2%o22%%82o22p#*<ip2+i<r<",
"..+;3+uip2-<o2.-02<w+i<*p*3u;iu+p-4--p##0i;3;uuu*uu<#i-p1<1pi-p.-ppp444op*p0pp.#p#p-2>>00000>0>>>>00%0>%%228-2%>%2-#p-<*+i-oi1i<",
"+pu&q3;i#-#i<2-o0iXu+pi.iu;p-p..*puiio---uu*i*+4u*iopop<<ip-oop,pp44ppopiio-i+u.<p22200>00>0>>>>0202>>0>>>00%%%%2++#-#i*i<i2-#op",
";+iu+rrw---##o20piu*ii*ppu31*41i3;*po-2opu*u4i3i+poipii1#i1p2p-i1-ii*44p.ip-.+pi.#%2220>>>00>>>0o20002%>%%0>>>60#X#-i#+X*<42o-*i",
"33p.*3;u;ui-ooo2op*ui+i+u*ipii+u*up-op0-3u3*i444o4i+-pii-iii#poopppipop4o.4p*ipyi8-112222>>>>0>>00o2000242%%>>>%2i22#*XX7i1--2pp",
"+3*uu*ui3rw<#o-4po-#+pi*44p+i+.i*uooo2oi*i*.o-1oii-044#-p+pi1#p##1-.4o44op4oiyuuo%#*i-2o-o0>0>>>0020>02>220>>>>%22o8i*<**iui#o2+",
".+u.+u+pp#;ipiip-p4oi+o2oi.+.u++ipo-o8-u.ipp#3uipoop-o2op-oi#i#pppipo2pppp1u33;<028i<1o4p2-2>0>>0o2002o0>>>>2>6-#8o2i*i*ipw*iio4",
"p*u44pp#44i+iii#i1-pp244u.uu++uupi-o2oiu+4i#*ipoo-ii#p2-p4-pp#*#p1+4op1.+u*u*ppo22-#iop200oo000>>00o2220>>%266%i*i#-i#ii+pi3*--o",
"1iu#p1p+41.i+ioppp4#op#oo4u*.uu++oo#o-uuuii-po21+#ipi#-.ii+-4p+4.p4opwippp*441po2o0202poooopp000>>>02>>>>0>>62--i*#28#i-ri*;io-1",
"p+#.p++1#4-4-pi---o-<io-p-p+iu+.4p#pop+u*uiooo+iii4-#p+i+i44poo44-op<3+**i14puo2o00oo2oop1-ooopo>>0>>>220-0>2#2o-#oo28iii+pi*i##",
"p4p#;;ip-ioo44-44ooi+p+p*u+i*u;u+p-o-1i;.*io1ii+-4-#p#pppp-o2o4-4p<i*p4o4oo4p14o00oo-ii.<<1pp11o2--p--<w-1-1ii2#ip---2-42pp+3u+o",
"+i++u;ip4---p4-ippiwu+ipu*iu;;3u+42ou+u3;r+oi+1p#ip-++pi+pp4-ii--i.ip0ooo0ooo0000o0-.i<1iu*uwi<-2--1i+wX<#iii+#*#i<<uo2#+o-u;uu-",
"op+;u;i+-o#ii-p4#pp*ip+u.ui*33;;u--13i*uu.iii-po-;#+uu+ip-piippoopop2oooooo0000o2ooo-oo#p*u3<<<i1,+i+#ii<i#+###*i+w;ii#p--ppip*p",
"i+u;ruu4o4pu3pipp.1p+pip+i44iuuu+-oiuip*u+pi*-4-2oiu*ui.*u++i+i#op1ooo-pppoopp0ooo21p-1<*u3;3;3<i+i###+i*+i#2o*<<*u*u*.+-o-#.i*+",
";i;t;u+oiuu*u+i.iip+pi.p44i*i4+.+oir&uu;.;u*3iii1p+u.**3;;uu*u.=pio0oipooooo%0oo2oooo#<+piu;3u**1io-1o-<u<*#p+#+uu*uu&ui###+iuuu",
"r&3.up4#*u*u#yw<444p1p14-oiuu+4o4u;3r3;uuq+=u;i+#u<*uuu;uu*u4444po0opo2o00000oo00000-<3ui;iu;33i+ip-ip-#*u*#*uii*uu*;3*#4-p#+3&u",
"33upp++u.u+u;3;u+p-.i4pip+u+4u*iuu;;r&u+;u4peu+o4yu.uuu*u+3uoooooop11o0o00000>>00ooo1iw;r3*u*3*u+i*uu##p+uu#*i+i+i+iui+i+i-o4i;+",
"4p44p;3;;upu;;u*+*uu+iX++u;i*3u;3*3;uu;i3.ur;3.oo<;*u;uu;#i444poppopo0o4o00000opop1<iii*3*3u*i+ii+iu*u*4#;3*uu++i*i#4ppp+u+#--0o",
"44o-4+i;u4+3;upu;3;q;3*uu++33;4;3iu;u+.+u4u;*.4o,3;iuu*.4+4o-ppi42o20oo2oooo0ooo1wipi*ui*3*uip+i+4i*3*3uu*33;+i+iipp++#+u*ip.#u-",
"i+p4oi*4oou&3uuuu;33++i+33&r;3;rupuu;;+up+;.#-y@;3*uu+i+44-ooo4ooooopo2op2oooo1,+<<<w*4piiu++iu++i+iii*u+i*uu+i*uu+#ii4u*u*ii*3;",
"4o1u*4oo-p1iu;;3+4o4i+4u*3;u;uu*p4+4+33.+r;up1;r;;i.+uu+-4i111p2op-op-pi-o2pp<w+4p+i+pio.up+4uu;++i+i;i+u*uuu*uiuuu+i*+uuuu;i+4#",
"ooirrup-p3i4ur*ii#44piu*u;u4p+4#uuuuurq;u;i+uuiuu+4uu.;i.+i+#p-oo-op-pi-o-1o,wu<i+pip*u+-i+i+uuu+uui+i4ouu+uu;iu;u+i+uu;;3;;+pp4",
"pu+u;+4pp.p4i+3*i*i1o4ip+up+;3u+;++&;r;uuu+.+iu*up+u+4uuu+.i4#ii#ppooppo#<i<*;3;i4<+#+uui;ip++*+i*u+4p14#*i++u+u;++3uuu;+u;uu+i4",
"31<rrii+uupoo4i*uu+o2o0oo4iu;;;iui4u+iiu;uui.u;;uuu+++uu;+++i+.+o#2020oo0ppiii+i1p+i44i*u*i#+uui.ii+p4i+uu+i+.p+i+i*;u+uu;;uu.p*",
"rpiw*1puupi*i+i4pu2oo00ooo.u+=iu4;u.;;+.u*upi..+.io4p.3*3uu+uu#pi.-#o00o02ip-4ip+upp+ipu;u44uuppp44p+i*3*ui.u+i4puiii;i++uipu;;q",
";i4#p+i;;++;r*4o#224o2p-po2o0o..+*+urr3i4u;u-pipoo0o+u*;;;u*u+p+<1#o0o-oo0000p1p*i+u*u*p4uu+op+42oo-uu;;3;u+i4+++i+iii++44pip*&r",
"3*i+u3*u+;3rqquo02+i*upiuipo0o>o+o4ouu*444ooppooo1124i+iiu3u+4+u*u*<i1pi*o%0%0>o-o44ip+4-oo44-p24up4#+u;uu+.++ii4+ui*i+ui;3;iu;r",
"3+ii+4p+33;uqr+o2+3i.*1up0-ooo00o0oo0o0%4+i*42iopXiip++4+uuu+ip+4pi+p-ipo0oo200000ooo40o#.i-oo4ou;;3o+u#p;iuii4#p+ui*ui++;33;+ur",
"io4p+u;3u+uuuuo2o#4o1p4oooopppoop1p0oo0o0o.;3+4p*3*u*i14p+u.+.+4#-o-ooo0202o222o-o-2o0oo044ip#-+*;up1i4p+u++;uuuu+uuu*441-4*uu++",
"4p+1.u3;3e;ip2oo2oop4-poooi3piiu3pip#.p-p-oi;u;urru;uip4-pu+ii+4ooooo-024o<-.-o-1pop#-#i-o2p++i3ui+i+p-o-p+uu;u*uu*u#4+1+oo-444o"
};
