/* XPM */
static char *b90fb7c562174c4a95d5701dfa3cbd24ksBitKxwgUiuXhCS[] = {
/* columns rows colors chars-per-pixel */
"128 128 64 1 ",
"  c #040204",
". c #3C3A3C",
"X c #540604",
"o c #2C220C",
"O c #5C5A5C",
"+ c #440204",
"@ c #3C2A1C",
"# c #141214",
"$ c #543E2C",
"% c #2C2E2C",
"& c #741614",
"* c #6C6A6C",
"= c #0C0A0C",
"- c #342214",
"; c #5C4A34",
": c #6C0E0C",
"> c #242224",
", c #6C5644",
"< c #443224",
"1 c #1C1A1C",
"2 c #040604",
"3 c #4C3A2C",
"4 c #5C0604",
"5 c #2C1A0C",
"6 c #442E1C",
"7 c #1C160C",
"8 c #544234",
"9 c #343634",
"0 c #841E1C",
"q c #6C6E6C",
"w c #140E04",
"e c #64523C",
"r c #242624",
"t c #745E4C",
"y c black",
"u c black",
"i c black",
"p c black",
"a c black",
"s c black",
"d c black",
"f c black",
"g c black",
"h c black",
"j c black",
"k c black",
"l c black",
"z c black",
"x c black",
"c c black",
"v c black",
"b c black",
"n c black",
"m c black",
"M c black",
"N c black",
"B c black",
"V c black",
"C c black",
"Z c black",
"A c black",
"S c black",
"D c black",
"F c black",
/* pixels */
"-5-5+-665-5-5-$-XX+-+57w755777-ww775--55w=w55775557577555ww77wwww555555-6<<<-w--+++X@<<--555+<<--7w757555w63-575--5w--=256-5-6--",
"@+-@++5-+@-5X-<X<6<3-5-75-7w-5w=5w5-@---ww-5w-5557-5w557ww7w==w7ww5w7ww-8$X:X+@7w@@+XX@+-X+@@57w7-655Xw7756++7==76++X65www-@5--@",
"-57575-w7++w7+@-XX@<6-55w75555o1-w1566-5ww755555ww7ww7757ww =ww7w7wwww76<XX67w5w5X6++-X-X--@-ww5w775-+ww5555-+7=2--5+X+X+5w7w75-",
"ww= 7w7ww5-57+-6X<XX-ww7w-5@556-w-55-6-55ww-5-5-55w7ww7w  ==ww555w7w=5-w+6@+7-6+4@++X36--5w= w4w=5w75552557w66+57 5+<6<$55w5-@5w",
"7ww=w==ww+57w-X<XXXow w+55557777ww5--6@57w7ww55+5-w7w=   ==www7ww=www++5++X@X<X+X++@@-2   =2w-5ww5-ww7+5755756++-  -65-<6++7-+7-",
"-+555ww5+w4@+-6@$365ww+@5-6 =w-w7 7-<-757wwww--@55ww= ww=ww=ww  =w+555---X@@-5X5-o-35=75w5557w==ww7w7575=  ww-6-5-=     56-55-+5",
"<-++-+++3+566<<X:3<-54<6-5ww555ww7w757555@-57-6-55w=wwwwww=w==w75555-57 w-+ww=ww7w7ww76X++77www=ww-575-+w   wwww=w-52=-7 w-655-6",
"6-@-6+@+@+-<$<43XX+-w7<66<6665wwwww5w557=-7 =w5+-w= 7w77-www=77+75-57  766+57--w77ww55+7-57775+56-555+-45= w5755575<-@<@7  7-@5-",
"5-+w5555-7<4<<:$3X--<<775@636@5wwww7--w  w7w5-5ww= =w5w555ww55777ww= w5-4+-6@4X6665@<4-+@++55+-+5555++6$-7w57-+-+5766X+6-57  = w",
"=ww    w--<X3<<$8;@6-6-=w5---555wwww--=7- =w5-55www5wwwwww56-+777755-+5557-+5XX-X56@:X@66+6-+7==w7+-++45w-6+567w7 7+-65+55+w   w",
"7  7w77--646<6<<X86755=57 w-@5-5w75-www55wwww55-wwww7ww=  w5577555-5w7www5+75-5556-4<-w--<65  7-555+55w#7+-+7+5w=5++5+5wwwwwww55",
"5w75-++X46$<63:66X+56w w-7  5--5w5-5-5ww55= 55555=   ==   w777ww7ww =ww77-5--55w5+6<7-- =-w w-6--+@+w777=55-7ww=5565++777w7w7w5+",
"++w7+5++X@6<6@@53@55ww-==5-=w@6777ww5-w557w55ww555ww5w=    w7w7www7= 7w5w+5+56575665w75w=  56++++5-5757www7ww7ww+w=-657557w5+5+-",
"-+-+5X-+XX-6+@$w-$6w----w75-w66w5ww515ww55w5-ww55@5w57w=wwww5wwww5w=55ww55565-55-+5-=w@@--<<++5-+w+64+55777w-7w55-w 6<+X5w+5-55w",
"@755w5++-++7+3$6+5w56w+--7w-@617w=ww5ww5w5w75www7%w7w7www57=w5ww75 7@+7ww5w555w--+57=746-6$+-+++5-w+6X+4++55++75-+5= w--57-5w7w7",
"w75w75@5+o-+-:<-$65-7575-+7+5@5=www55575w5wwww5@-557w7w7w-w w7-w= w75w7w75+57-=5-w=w--6-X+++5+--X3+=w-+-X5757=w7@@+=   75@55--5@",
"5+7=w-w57756@X$8,<w<<5575+-6-ww5ww555-5w+55= =6$-5-55www=w57=7555-+-w  ww55w7ww76ww--67ww5X-+@-+7557==5X+57ww=  6-wwww==wwww5755",
"55--5w557www-+3618w-$7w557+65 = www7565w-57  73@5-5w =ww=wwww ww6@-+5 =w5w5-575w5$64+w75w25X-++7w7+ww  -+-5+5575-$- ww =ww7ww55w",
"ww75@--wwwwwww75-8$<5w7www+-7=w=w5www65w+75w7$6-5ww= 77-wwwwww==+++75==ww575-5-++$$XX=w+5ww-+555++575ww7+75-+-+@$$$5=w7    ==www",
"==ww7755-5ww75-@$=#$5+7-7w--=w  w7w7555w5-7  6$@w=w7===wwww==w=w55-7w w76- w--+46X<:67w7@+w===74+577w-ww575+-@6@$66-7 --ww=  7 =",
"=www   =w7-@--5@52ww5+-@-w55=w7w5www555w5+5= ->55 7#  7ww=   =ww57+57w7w61 5-5-4XX$:@7=w+57w  w-7=ww7w w+5+-+6q,-++-- 767wwww7w=",
"w7==w77www  w1w6$5=6<+@-555557www=5w55w56+7w=5-65ww= w-5555ww75ww7-757w+6w7-5w-6+-:@+ww5@55w2  w5ww++57+-+5--4<,,86--w76+55577ww",
"wwww5++++-w7  5$67w5655+75-577w= w575w7-5-7www-6@7  ww-+-+55-5www557w75@w @-w74XwwX+=7w555+w =ww++5@--664X+-66+6$$5-66 5-5+7+5-w",
"5+55++5-5-+7www62w7 6<+55@-5 @w= ww=-w5X7w5w--75-  ww75555+-+5ww-w5555-5 -$+w=+<6w65wwww7+--5+@57577ww-:6+77-55--+-+$$w=-6+55-77",
"-5575+5-55+55-56567 =<-+--7 w5ww7w-5w5-5www=w5-ww=77w5555X57wwwww5X555=w6@5-w=54X+@+5w=w75-55<<+55w7www4-+5=ww5-+6++6667 75-5-+5",
"w7+ww-7+w+5+-6<<57w= 766@w w555www++--X5w5www  7 --+575757ww-ww7w55-w 5-7w5+w=5++@X+57w=w755=+6+-7ww5X 7+7= w7++<4557+-X7 =w6+77",
"7w777+5+-+5@4$<45==www6@5=w55-55X55+++5-77=ww= w--65+755+57w5+5w  7w 7@5w57www+-XX@XX+-  7w==+-++5575w 55  w75--5+5w7+--X5  ww-7",
"-5w-5@555@+@6$6<-= 75-6@5w55665+5+++@55w7==5w  56-6--+5-+5+wwww57   -@w555ww5w57+XXX-@+w w w5-5+567ww=w<4w=ww7@=w5-5+X<$-+www7w7",
"-w5+5+-++@@<6+X<5=w5@6+55+7w75++5++6+w ww  w  w@@++-@-@+5+5++-5www7--w5-7w-66ww5-5XXo++www5-X5++-w-@= w-57www57 7+-6++-X5+-55@w7",
"5+5++-+5+@---5++-55-+55w55www5++-6-57w5w =ww7--+5-+-5--+++-++6-5-6@5 5-5=7-++556@X@X55+7w-6-575+5w547wwwww7w555555@@+++ow++w755w",
"55+-+-+-<5++-77-<46-5w-w5+ww-+-4+-4w7-ww75@-6@@+5+5+-5+<6-@+-+@55557w@+5= =7+-+-4++57+75ww5+w=w5+5w5+7w75ww-577w+-+6++55ww5+www5",
"-+5@-<<+6@75+w-5-XX+55ww-++5@64-+57565-5@--6@4@+5-w-5+66+6@+--@-55+55++65w5++5--+55-7+7ww =77w +--7=-+ww-7+77w+-+5-@-5X757ww775+",
"5-+5+6@++5ww7w@-4X657w7++6<@@@+555-5w55ww55@4-4-55-5555++-4--6@6---66@@++++5@5w+-6+ww5w775ww75=7+-- 7557w5-5+-6--++6-+5+--7w-5++",
"+-557+55w7www5+6<X6+57+56+-7+4+5+5575ww-ww555+-6+557@ww5+5+++++---6-@-+5+57 w+5@-+5775w+5-5775ww+5-=w5557555-@@@6@6+-<66--55-5@5",
"66577w-5wwww5-5+-++-X5-+57w77-5w5w5w55  7ww--55-+7ww5w7w5575555++5+5+-75-7 =5+-555+w7@-++w75-w-w7+-w -+55555555-6$36<$$3<65-55-+",
"--5w7w5w755w@-X+<657555575w57+75557ww7=   =w57w75-++w55w7+7w7+57775575-57w w+5+-w55-5@65@+7755ww75+5 @@+@555 57++-@@$88;$@5@555-",
"57w7wwww5-5w5++5+6X+7=w5w+-@5---55ww-5w  =wwww= 55+57++5w5w57ww5-77www5-w  =-6++5w-5755w5+7w+5w5+5@- 7--6+55775-7++-666@--55w555",
"575-5w7557w=5++55+<65wwww5-5577www5+-65==www5555w--++5-55557ww77wwww5 www7 =w+55-w--5w55w+-57+5+574<w  w7@+@-5w55-7+--@@---ww75-",
"57w57ww55w w5-w-+7+-6-5w7w-5w ==w575+-7555w-www=w-7++55+-5w55ww55ww55w7ww5w757-5++55-555ww7+55557+-<@w=w5-@@55= w-57555-5-5wwww5",
"7w77ww5557ww55ww-5w7+++5ww5w 7555+5-7ww5--w5ww==www5--@5555www7wwww55wwww@5+@www+<-w5-5+7= w7w5++55+-65775+-5www@ww5w7wwwwww75w5",
"775w55w@5ww5wX5++-7 755-w5w=--5+-+ww 1ww77www=w5w=w5--7-ww5w-7ww55+@-55@X5555w 7-4+57565-=ww-=w+55+-+--w7555+5555w=w5555ww7w=  w",
"5w55w557wwww75-@+7w7w-++55 w575+7w www7+7ww7==5wwwww7w =w-+5555X-+++-55@-++-+7=546X+5X--57w w7w+++-+5w5ww55+5+57wwww55=w5ww= ww5",
"5w5-5-5ww5-556-+57w557w-@w75ww7    w7-5@@5w w5+555w= w7-7-5+++--<-+++www--++555@@X-+5-++@5ww 7w5-X5--7w 7ww5775+5ww-ww  w-5w57w-",
"555--5  =5-X5+5-75+66775ww5w5w=   w-75w--5==5-5-555  w575-55-5@5-5+5w--7w+5@5++4X+-w5+55-5+7w  77www= w=w=www7755wwwww= =wwww5w5",
"-@5w  = 7+57--w5+-@@+7= www755577-@55555w==w-5+7ww77w w5-5@7w55www-5755ww=7+4+55--7=75w7w5--w w7w57 =w77www 7w-557ww== w==w5755w",
"-7w= www5-5+5ww5-6-w55=w7ww57+-8;@55+5w7www5@5575ww5577-+5www w5-55ww=ww7 7--6X+55www75wwwww=77+@665755+557 w57www55w=w= w55w555",
"w===www-+755ww+@-+7wwww5ww5ww-+6-+755-w=w--555w55-www57-+X7w57wwX757ww57www+4<7ww777X+5w77=  w554X+5+@++575  w5w =w7www==7w-w557",
"w=w557+6577ww-5-+5w7 7w-www55w5-w=w55w =5-5w7w==ww555ww+6+-755ww=w=w5X575555-w=5@646-@-5+ww=w-6466--57@5 w5w  = wwwwww7w ww-wwww",
"ww557+65w55555657ww7ww56=5555w755-55w7w55-5wwwwwwww7-@555-45w5ww=  -5www5+@77=w--+5@<6+55557573$X6+57w+w75-w   =77 7www= w7ww= 7",
"577---+w-5-ww5+5-55-5w-5 @5www55@--w5--5w-557w5557ww56+5w7--75ww=   w= 55@-55+65w7ww+++5+-4-6@w<4+5575+w5577wwwwwwwww5w  =w5 w77",
"-7+-@75555575555+5w565-@w-6ww7@6-55www-5575w=ww5w57755-+57 757w7=   w7w55@-X-4:47w5555-+5+<<+-=w-+55@-+55ww= www7ww7=www  wwwww5",
"5---ww5-5w5-55w555=55-5575-=5--36555=w56w=57 =75-57w5X55+-7www55www7777555-5-X+5X5ww5@-5+@6+55  7-555+-57 w 7w57ww5w w5w=www7ww-",
"--7ww5-7w7-5-7w5 =w-6@wwww-5--X@@+65=w5w= 75w 555@@5ww5@++5www5555-5w5ww555-7++-++-==--X55+5-w=   w555w5ww7 w757-7555w7w w777w55",
"5w7ww5w w-55-ww =55w-5=7556@6@+55-5w577 www57 w5555ww55-5-5w7wwwww-5w7ww5-5677-+o+--wwww5555-ww ==ww-55575ww75-55555555w#7w w5--",
"7w=w7w==www575=w757 57 555666+++-5767+ww7www55=w5w== w75ww5w==w=ww5X57www6+@-=76+<+5-5+7ww777-7 =www77w755ww5ww5555557w55w  w5X7",
"5w7ww= =w55555w57- 5-w 7556-+55+ww6+w-w5www=75wwww7w=ww wwww =w=#=77w55w=764<w 686+w5+7www7w55  ww5w55w  755w75--5565w7ww7=  =ww",
"==5w    w-555www= 7<5 w5+6,6++-5775-575++-5ww@5w7 w5ww7     = ==w 77w555w=@3<<77<X7ww577w5wwww= w75555-w 75www755ww55==  w7   ==",
"= w   =755ww57w57w6-7 +7 6,3+-@w=++-55w5+5X5w5-55 w@-55ww==ww== 7=w55ww-5 6$<$@ w-Xw77775wwww5w w-7+5+55577w==ww5w5www   w w = =",
"w= =ww5-557w5@@57--7 w+7=5@5+5= 5-+--5w5-5+-@55557 7-5557wwww =ww =7ww=55w7<4-<7w5+57+ww77+7555ww5w75577575wwww57w5ww757ww== w==",
"5www5@55w w7 ---5-555-@-w5657 =w$<@55675+++6@555--5 w@5-ww7w7 =w7w 7www 7-w+-+--ww-5+5-7ww55w77w7w=7w77555wwww5555www1--7wwwwww7",
"775-w  = = w7@++5++-w-6$7+5ww=w5<6$@www+-X6--X5555577wwwwww=ww =ww= w=w=w555+57557w+5w55ww7ww5ww5=7-w75+ww7ww5+55+55ww-57w7w#ww5",
"==w77=wwww7w55-+-555w5---<@5w w553-+-56@-+-+555555555-5w7wwww57 www55ww57555-555+5w557-w5+ww+7w55-56-55w77ww557w75577w5@w5www7w=",
"7ww7www757-5w5@5+-5+56556@3@77 =w+@-$6@-+575w--5-557555www575www5ww5-6---+@555577+-+57w55w7ww5ww755--X57w+555ww=w555www--=  =w-1",
"57ww=w5--  --+5+55+556@556@5w5www-64--++-777-ww55555557ww5555wwww7www-56@5-+-55555+577w575w+75w 756555w-5www5w=w557w5 75--77 ww5",
"75557-7ww5=w5755w555-555+-w+w57=w-@555-555w75www5-555w55w75=w57wwwwww5ww55-55X+++++5ww5w-6@5w5w7w56+--+557w55ww5555=5  55@5ww7w7",
"5--6-@5w53@7-w5w7+5-75w75www75ww55+6-+557++555w=w5555ww7wwww77www7w57w5-w=5555-5555+5w+56636ww= wX-@36@5+-w-w-55w5- 5w 575www w5",
"@56<@+++@-55555w55w755+75+ww+ww75@-@-5+5w557555w5+-55 =7-5wwwwwwww55ww566   w+@+++X5++++@655w=ww53-+55-6-+--555=w5575w 757www=5@",
"--6666@@5ww-55w55ww++755ww-5w7ww5=5@w-5+75www5555555w7  w55ww==w5ww755-+@-ww-5-+5555+XX+++ww7=w-36$6www5+445-ww5+-5=7w=w5wwwww5@",
"6<<<667w  w-X55-w75-5+-77w7+w57www=ww55-5577555X+-57ww  =5-5ww= www5+5w++<@575@5--+X++o55--ww==w$66@5-55-5--+5w5w55w55755wwwww56",
"@--<67w7  56X-6w=75575ww555w55-ww-w55w555-+ww5w55555-w7  7-5ww= 7w=w55+-55+w7w--5@-5+-+7+5++55= +<$6ww55755+--5ww56++@7-77ww=w56",
"66575757  6$<$5=w++wwwww5ww7w-5 5555X+-55555 www5w55--w= 55555w  ww5+-+4+7- w5655--w5-5+5+-5+4-w-4-5 7  =<@7--w7wX@@--wwww==ww-3",
"@6-+7www =@<<<776@ww75w7w5wwww  w5-+55-w=w555w5@6555-6w  =ww55w7==ww5+5--+-w55-555-7w5+5X5+5++6+w@5= www7<5ww5w5+-w= 7=    ==w56",
"-56<-ww5 wX-6w 63+5w55wwwwww55= w7555-w==5--5--6@-5-667= = =ww557ww5-ww+++5ww5X5ww-5 www+5+w+5++77657-57-6555555-=   w=  =  7-5-",
"-7w--5=ww-+-- 7-+6wwww5www5w5-7 www7w5ww5X7w555X-5-5-6-ww7= 75-4-5w5+-5---5==+555 55ww7ww@+56+++557<@@@-64--55-w=     wwwwww5-77",
"=ww  w5-7-5-7w+-7w5@wwww55555ww = w7555555ww5----X55X+-5775ww-63365756+7@-+w=5---w=77ww7 75+$6+++655+55--5www7= w77w w5+w75w-7ww",
"w77w7756-7-5w+55+-7==55575+--ww  =w55X+5wwww55+---5-5+5+5w5w5X-@$36556@555-ww+-@-5 w-5=w777566+<<+65w757-w =  w-ww5www7X5+5777-1",
"7+7-+55-5755++-+55= w555+--+57  w-+7+5-5www=ww5555@5+6w+-w7w+5++4@3-5555X5-w5--6--= 55=w$@ww+@6$65++www= ww 765-5 ww5+755+w75w55",
"36---4555--X-+@+7=w5w55ww-6@+5=w-455@++55w5 7w5557555@75--ww-5555-46$-55--557@++55w=7-57@@ww7+<3-557w7  7--75555w  w57+55= -3656",
"$$6@6-+5X@4@5547wwwwww557+--6-w6X-+575+75557www7ww55-+++w5ww5w555--+6$+-5--5ww-5+@755-675655-75-<6-57-7w5@@-5-5ww  =w4-5=w5+@$6$",
"-55-+4-+-4:-==w5-55--@77w5-www63-4@57w5ww55w=  =5ww55+5-wX55www775+--4$4+---5ww577www5@+55---5+-56-+767w5555557w= w7++5w55w7w-55",
"www555-55-X+-w 5+--55-55+www=5-+4-+-55+5=w5w  = www557w5555wX5w7ww56-7X$+7+-5X5wwww-+-@57w-6-X@67w7-+75wwww575ww=w5w7ww+57   www",
"575555--54XX6$5wwwwww55w7www=ww5++5755+5ww5= w5w =5+w=w575-ww5ww==ww77wX6+-555---7--5<<7ww-55-<;645+-+57=  www75557 757--ww= w7w",
"-55-+-565XXX:<6X57w=ww5www5w= 775-@w777+-5w w757w755w=www w@7=ww=   =w=7-++@+w5-55X6-5w5w5-X-4$,,$-@4-57w  wX5ww5ww757@$377w5@55",
"-@55-45-6+6X:X++-47=557www5w  ww77www==w5w= ww55555ww =    w5-557ww=   =55ww-+w5-4X<7w=w+5+5-6-5-66--+++w= w+5X7ww57= 533w=7@--@",
"557777556-+@+-X6X+-w7++-5557ww7ww=ww=w=w7ww7ww-++5ww-w  =ww5w-55-@--5w   =w =5-+XX<6w=56<5++-57@+ww+++-66+ =+X+--5+  ww555--5-5-",
"---@57ww5--+-55@6X455@+556-57w55w7+5=7= 7555w5555ww+ww  5<-7-757w56@@-w= w5w w-4X<-5w7+$866-5-566+775-X3:-w=w54++57  www5+6<-66-",
"-55----5@-5757=5X@X+5-+-5+-5= w@55w577w=w5557+++7w7w55w75+5= 7wwww556-@7 =77w 5-+65=+-++4-557w=+6+5=ww+X++X+ w+5w-7w=w7w55+@46@5",
"57-55-6@-5@557=w6@++5+-55-56-5=--w755w57w775+5555w 5555@5+55w  =www5+5@-   =  75+$5w+---+7w7w5w 55  w75-XXX+=w65=w77wwww5X-++-+5",
"55--55+--X@+-5ww6$-5+55-55w-X@ 555ww+7w55ww55w=7@57++5+5+5w775w-5www77-6-7w= ww76;w5-@6455www5- 7-==w7-+XXXXo=$6ww5++5ww54XX5+7-",
"55--w55+5+-55755+-++++55555w5-=w5wwww7w555-+++  w@-5+5+5---7w7+5-75-5w+--7w+7ww5-$w-@-@6+5555ww=-65ww755-+XX5w<X+5+X4+5+<XXXX57-",
"-+457w777w775++++w7-+-7-555ww-ww5+7ww5575+-5+5ww5-++46-46-6+w5-@+55@5ww+-55+++X++55w5w7+++55ww= 7+7w7755+-5+77++XXXXX++-+X+o755+",
"XX+577-55w5w-6+5575+o5w555www55 @5w=5ww55557w w5+++6<$<<6X555++557wwww7w--57--X+77@w ==5555565 =w77ww5+-75+-5+++XXXX-+@X-55-5-+-",
"&6+++-+ww7w5+++57w+577w77wwwww5=755 w7 7ww7w7 w+-66638,e8<-<@+577w5ww5+ww-5w@--6@+57www5-+7w547w7w55+-w+++55++XX:XX@7++55++5+++4",
"&XX6$X++--7-+-65575-577www5ww=55755=w57 w557+---$$$6<8;8$<X6---++5755w5-www5ww+X$+7@5w7w5+55=7--ww57+5-@@4X+XXX;:+o+-5w-+-X+54X:",
"::<$8&<64X+55+5@-+@ww75w7 56w 75w5+ww7w=ww7-+56@666+X3<64-55--@-@+5+5++-5wwww=w6<X+557ww=5+55 7+55755+--6<:::::0:--5<55+++XX+X<4",
"@X@$<:$::86+++7++6www55w  75=www575w#ww=w-5+++---++@-+++--ww6-+-@6@@+6@+++757ww54XX57w57 w+-67 55+5+5@@6$e&$::&:+@36++XX+:::<<:X",
"X++#w+X:@<X$X5+5+5ww6+5ww55ww5wwwX+77ww= 5+-+5-5+556-+-557www-+55+-@-6<+66+++77w+6+5 w557 5+-6=w@476+5-6$$$8::&X@@+++X$&X3&X<:@X",
"@+-= 5XXX+::X+++5+@56@-565-5=w7w556-www= 7-+5+w55+5-++577w++ww77+++4+4X-$++5+75w+-657www-ww5555 5<+6-+4-XXX@33:X+X+XXXXe0::X::3@",
"6<35 5-X+-XX:3X+X5+-55++6-46575ww555-55w= w++@55+5@65+++w+Xww@7=-5+++@+++@----+++-55-555757w++6==6-6X-X-+5++-$@XXXX<@<<X:X<XX8<@",
"5w5<@wo-55-::3$X+5556<w7-6575557+w7 w-5w7w---555w5-6++@65--5+@ww-555+++++X6$<+4<6w-<-575-77w5+<-   w76--++<6-@6<8:X&8:0XXXXXXXX7",
"5 2 -<w55ow@-5X<X+7+-;ee$<- w7w=ww  =w55ww--7www+55+5+@<4+7ww7w5w-w55-@--6+6<$@6-w-+@@5w+55+554$-ww555++4+X@<X5<&<;&:X@XXXXoo+o-",
"2=w7 7<7757w5@+@3X-7w76633@w5www5+= =w5575w57ww+-+57w+-+55  ww5755575+----5+X$<X5w66--657++-7XX@@<-575@X--@X++@53&8:+X-X@<+5X+55",
"5o+<w -67w5+5+-@@6+-w 7@6@35ww55+-ww=w+5w5ww-5-5@@+-75@-7=276+ww55+ww5+X+55-+<$<@586-63@755++5++X6X7774-++--+o+--;$X+@++++>5@+15",
"55++-5ww66555+65X--577=w-66-=w5ww55+57w57--w5-5-+@5+-6@5 755+5-w5X57+X+5555-+-5-66$<63$6577-X+++5+5ww5+-+-++5++$$6@+1+X@XXX++o75",
"5++-+-67 -$6--5-----55ww=@$-ww+-+-5557=w757-6---@5+@$6w=--+5-5w555-++++-+-7565=688;<<66--57@+5+XXo5-755X-+++++6$$-w-ww-XXXXXX-+5",
"75+-7+56w -X-5<$6-66-75-ww<-+-+6-+www5555=w-6-X-$6---@ 5@7-w5555www75++++-w5-wo8$$66<@@66;@w6+-++-+-75+X-+-@X<&$:<5w77<XXXX+-X-+",
"w7-577w+6=w--6<e,<---5++++-35-+-5-w5@---77-5-46,e$--5=7-+w77555     w55ww7  w7w63<<;;$64<:--6++o5+X+5+-++++6:$<XX36w+-$:<X+oo5+5",
"5w5+w7w5<> 5-5+6eq$w--@6$6567w-6++w5-65-7w5w73*;@5X55 76w7ww5w       22www756%w-6<8$$$6X++-<++w5-7-++X4X-X+6X@6+XXX@6++ow#22 w55",
"-w+-ww756- 5-6<<6<-5-6<<$<+-6-+-+7575--65=ww+@@@66--7 --        =ww=w7w7ww7w777+<8<<<<++6--+4-57+5++XXXXXX8X+++o55+:<+55+77ww5-X",
"7w-+5w=7w57w5$$$@7w-@6@-66-+@-+6+5+-ww--5w=5w w@3335w77    ww57www-+6-7wwwww7w5-$<48;6<<8--5w75++X-X@<@83X<@+o+5w5X:4Xo$-57w5555",
"556-5  75w5@=-$@5-6$@5+-6$@55-@--5+-75w=55 w5w=5-6@ 5w =ww=7w-7 755555+-w7w7++<6;;<46$<4X4X477@6XX<6<XX:<+++o55ww5X:X+5+w5577ww-",
"554+w =ww55w w---+@6-----3<655@6+5-7 5-=5-7w5+-w@-w    =wwww7w--+w==w@57+75-@4<$e,$$6XX3$::X-X6X@X@+++o++@o7www77X&:X@+7w5@ww+ww",
"7=w5-ww775+7w5-<-@--666-++6@-55<67w5=5+w-6w 5-$--55=   w55-5-@+--ww=w5++-+@++X-56@$,$$$;,;8<+<X@@+++o-55-@www-7w+X8X+-+5++7=w5-7",
"7-2w<47w75w5-5+@666@66$6@55@ww-5+-5w=55=5-5w--5+555  w5+575ww+-7ww5-w+++4+55+--=++X<:38,tt,$-$-+++o5+ww-+ww5+w-4X3Xo+o+-5X5=w+7w",
"75ww55w775-@5@5--7-66$,;6@+w= 5--657w57 --+5ww----w=-65+7w+-55+++75++5-+XXX6--@w5++++::30$:@++o++-+77w7w7w-@+54XX<-+@X5w75w5+777",
"5+5www755+7+5-56@7ww>66$<6--w 55+-5+7w=55@-@ww66-w=5-5w75ww555++5www5-++6X@<:<46w5++@XX$:X:@65756@+++65w5X-+5+X+XX+5+5w =  -7555",
"-57ww7w5w55@-5@6@6-@o>6-666557w555-55w5-w@5ww=-@5w55w5www=w7ww75w w55+++X@<<4++-  5@-+XXX-@6@+7++@-7565-+@6574+-@w==#ww2  w+5557",
"5-6555775+5555-56-5-@O<56@6@--+5+5@55-6-w-5=55--w555w557ww7w=w7w   wwww--<@6@++7w78>o-++++++o55+7-7w5+556<6w76@37755+77w =54-+57",
"555+5+-5+56+54@-w--5-$.$6-@@66-5-@@+75--w5-5w-@w-6X55-w5577w     ww    7756X<6X@6X+5 56-X@o++5w22=ww77++<6ww-@@@w5+@+575w7-$6+-5",
"-5ww=w+6@54@6@46-5-w75<<<=755-55-6@5-=w-w5-7w-5-64--@-w-57=  = =w5577555-w<-<6X3:X+57w5-wo++5=27w-555+666-=-6-X+7=www67+6-w5X+5+",
"5---7  76:6-w-6+-@5w75@-- =5w75ww---7w7ww56-w5--X@5w5--@w  w5555-@5-@+-+6+56$<X:XXoww+5w  +3@7--76556<--55ww7+6XX5==5+w+-77#w5-4",
"X4--6-w w-= -576@+5www57w= 7w7ww56@7  7w556-w55-@ww= =5w 75@5-5---+--+-+657-6<<X<8@55XXo= =7w7w+--ww--677w5-6<8$X:5 www7X5=1#ww@",
"75++5+65   w57w56--w5w =   55 =ww-6w=w-5-5www5-@5w      7555wwww+-5wwww7+w@5+X6X33<577ww7w=   w5@w w757 o7775<$6<X-ww7wwwww=71 =",
"7=w75++6<6-6-w=-5+-5w5    w77 ww567w7w5= w5w5-5+5  5-55-@57w55w-www=w ==w5+777X<XX+w==25+www=2  =w5-+5=7<575+4XX0<7www== w=17775",
"5577w55+$6-<47=7-+@6wwwww===7w5555 ww-w 17ww-5-5w w--5-67www5@5www= 7www75557+-5w==wwww7556+7=ww5-X+5w 75-w-XX<X-XXww7ww=2www755",
"5-5ww-+5X++-+5-= 7++55-5-5w=75w7-= 7w-w7$5w755w =5ww5-w75ww57555555ww5ww=ww www=w7555@5-+++7575+-6-5w w7-55-4-XXww6+5+++5ww=w7w5",
"55+55577-++5-+-5w775+6-757ww7575-www5ww755 75ww=75@555w55w5ww555www75ww-ww-7775w+6<6$66--5X5-++@-+w7ww55+5+-5@XXo5+6++6+++55ww75",
"55-555+-5-55+--6+-<<6--www555555575755557ww-55w555-55w7575ww75www5555---46:@5ww5++XX6:6+----+-6@+5ww5w55555@576@<-w57w7-65-5-+--"
};
